<?xml version="1.0" encoding="UTF-8"?>
<svg xmlns="http://www.w3.org/2000/svg" xmlns:xlink="http://www.w3.org/1999/xlink" width="103.464mm" height="96.267mm" viewBox="532.507080 -314.093140 103.464478 96.267120">
    <path style="stroke:none;fill:#ff0000;fill-rule:evenodd" d="M569.679688,-217.911896C566.238037,-218.244415,563.408569,-219.584442,561.609375,-221.733963C560.252197,-223.355438,560.053589,-223.885452,556.838623,-234.466156C547.83313,-264.104156,546.537781,-268.402222,546.413147,-269.058167C546.234192,-269.999878,546.339905,-272.595978,546.594604,-273.514984C546.835388,-274.383942,547.53894,-275.898712,548.080933,-276.715271C548.96344,-278.0448,550.425049,-279.305908,552.009094,-280.104584C552.615601,-280.410339,556.240662,-281.623779,556.547668,-281.623779C556.612488,-281.623779,556.662354,-280.969971,556.668274,-280.042297C556.673828,-279.172455,556.718689,-278.201996,556.767944,-277.885681L556.857483,-277.310577L556.872864,-277.890961C556.881348,-278.210144,557.121155,-281.983276,557.405823,-286.275665C557.690491,-290.568054,557.923401,-294.189392,557.923401,-294.32309C557.923401,-294.593079,559.527466,-294.414703,543.298706,-295.949341C538.747009,-296.37973,537.817932,-296.498474,537.174927,-296.731873C536.062866,-297.135529,535.217712,-297.68811,534.419617,-298.533386C530.576538,-302.603638,532.845093,-309.341492,538.37085,-310.268951C539.32251,-310.42868,537.673401,-310.563416,558.141418,-308.653534C567.82019,-307.750397,567.656128,-307.778534,569.193787,-306.756317C570.888977,-305.629333,572.011108,-303.74527,572.242798,-301.637024C572.281311,-301.286346,572.079041,-297.551575,571.78894,-293.256653C571.501099,-288.995392,571.265564,-285.470001,571.265564,-285.422424C571.265564,-285.374878,571.600647,-285.171021,572.010193,-284.969391C572.928101,-284.517487,573.849365,-283.687531,574.337646,-282.872528C574.608154,-282.421021,575.369873,-280.074585,577.188538,-274.090057C578.553528,-269.598602,580.267883,-263.95694,580.99823,-261.55304L582.326172,-257.182312L578.360718,-246.428085C576.179749,-240.51326,574.339355,-235.531509,574.270996,-235.357544C574.202637,-235.183578,574.171631,-235.041245,574.202087,-235.041245C574.232544,-235.041245,574.534607,-235.623535,574.873291,-236.335205C575.546387,-237.749481,586.739624,-260.692474,588.004578,-263.250641C588.877625,-265.016296,589.626343,-266.014862,590.691895,-266.834778C591.516663,-267.469421,592.774048,-268.084167,593.809204,-268.358826C594.819824,-268.626953,596.827148,-268.623901,597.834839,-268.352692C598.915344,-268.06189,600.325684,-267.340912,601.057617,-266.70517C602.996155,-265.021362,633.543518,-236.916595,634.037476,-236.362366C634.719543,-235.597137,635.473877,-234.162903,635.760742,-233.085938C636.070374,-231.923706,636.036377,-229.713531,635.691833,-228.600204C634.78125,-225.658264,632.53595,-223.50325,629.637512,-222.789429C628.618225,-222.538391,626.68158,-222.536484,625.726868,-222.785583C624.671814,-223.060867,623.046814,-223.913116,622.276306,-224.595276C621.62677,-225.170349,614.522156,-231.663589,603.313843,-241.925934C600.602173,-244.408722,598.370911,-246.424438,598.355469,-246.405319C598.339966,-246.386215,597.498291,-244.662567,596.484985,-242.574966C590.085815,-229.391083,587.635376,-224.445724,587.23938,-223.916138C585.788818,-221.976166,582.031982,-219.896118,577.936646,-218.765533C574.974304,-217.947723,572.237488,-217.66478,569.679688,-217.911896z"/>
    <path style="stroke:none;fill:#ff0000;fill-rule:evenodd" d="M554.932922,-282.95932C553.001526,-283.37851,551.102722,-284.189056,549.392517,-285.324432C548.048279,-286.216797,546.133423,-288.123718,545.244385,-289.455292C544.582031,-290.447327,543.515015,-292.554382,543.365662,-293.165314L543.285645,-293.492493L549.080505,-293.410614C552.2677,-293.36557,555.185974,-293.295959,555.565552,-293.255951L556.255615,-293.183167L556.38739,-288.869965C556.459839,-286.497711,556.524536,-284.15564,556.531189,-283.665375L556.543213,-282.773987L556.111877,-282.785522C555.874634,-282.79187,555.344116,-282.870087,554.932922,-282.95932z"/>
    <path style="stroke:none;fill:#ff0000;fill-rule:evenodd" d="M571.845276,-291.18689C571.842712,-291.227631,572.073181,-293.427368,572.357422,-296.075195C572.641663,-298.723022,572.874573,-301.156586,572.875,-301.483154C572.878296,-303.849213,571.600098,-306.302734,569.710999,-307.556671C568.484436,-308.370789,568.020203,-308.475464,561.805725,-309.339081C558.626648,-309.780853,554.421082,-310.366302,552.460022,-310.640106L548.89447,-311.137878L549.699585,-311.663605C552.19873,-313.295532,554.879395,-314.08197,557.980896,-314.09314C560.676697,-314.102875,562.820862,-313.591095,565.169556,-312.37738C566.733154,-311.569397,567.730835,-310.826569,569.085938,-309.461487C571.227783,-307.303894,572.643127,-304.667175,573.304993,-301.601563C573.46283,-300.870667,573.507996,-300.130585,573.50647,-298.301483C573.504578,-296.08667,573.484619,-295.866852,573.177185,-294.678406C572.997192,-293.982544,572.69751,-293.029114,572.51123,-292.559723C572.171204,-291.70285,571.853882,-291.048706,571.845276,-291.18689z"/>
</svg>
