<svg width="82" height="76" viewBox="0 0 82 76" fill="none" xmlns="http://www.w3.org/2000/svg">
<g clip-path="url(#clip0_752_152)">
<path fill-rule="evenodd" clip-rule="evenodd" d="M29.461 75.9324C26.7333 75.6699 24.4908 74.612 23.0649 72.915C21.9893 71.6349 21.8319 71.2165 19.2839 62.8634C12.1466 39.4652 11.12 36.072 11.0212 35.5541C10.8794 34.8107 10.9632 32.7611 11.1651 32.0356C11.3559 31.3496 11.9135 30.1537 12.343 29.5091C13.0425 28.4595 14.2008 27.4639 15.4563 26.8334C15.937 26.592 18.81 25.634 19.0533 25.634C19.1047 25.634 19.1442 26.1502 19.1489 26.8825C19.1533 27.5692 19.1888 28.3354 19.2279 28.5851L19.2988 29.0391L19.311 28.5809C19.3177 28.3289 19.5078 25.3502 19.7334 21.9615C19.959 18.5728 20.1436 15.7139 20.1436 15.6083C20.1436 15.3952 21.4149 15.536 8.55292 14.3244C4.94551 13.9847 4.20917 13.8909 3.69956 13.7067C2.81821 13.388 2.14839 12.9517 1.51586 12.2844C-1.52994 9.07108 0.267987 3.75177 4.64738 3.01957C5.40161 2.89347 4.09463 2.7871 20.3164 4.29489C27.9872 5.00789 27.8572 4.98567 29.0759 5.79268C30.4194 6.6824 31.3087 8.1698 31.4923 9.83419C31.5229 10.111 31.3626 13.0595 31.1326 16.4502C30.9045 19.8143 30.7178 22.5975 30.7178 22.6351C30.7178 22.6726 30.9834 22.8336 31.308 22.9927C32.0355 23.3495 32.7656 24.0047 33.1526 24.6481C33.367 25.0046 33.9707 26.857 35.4121 31.5816C36.4939 35.1275 37.8526 39.5814 38.4314 41.4792L39.4838 44.9297L36.3411 53.4198C34.6125 58.0894 33.154 62.0223 33.0998 62.1597C33.0456 62.297 33.021 62.4094 33.0452 62.4094C33.0693 62.4094 33.3087 61.9497 33.5771 61.3878C34.1106 60.2713 42.9817 42.1586 43.9842 40.139C44.6762 38.7451 45.2695 37.9567 46.114 37.3094C46.7677 36.8084 47.7642 36.3231 48.5846 36.1062C49.3856 35.8946 50.9765 35.897 51.7751 36.1111C52.6315 36.3407 53.7492 36.9099 54.3293 37.4117C55.8657 38.7411 80.0758 60.9289 80.4673 61.3664C81.0078 61.9705 81.6057 63.1028 81.833 63.953C82.0784 64.8706 82.0515 66.6154 81.7784 67.4944C81.0567 69.8169 79.2772 71.5182 76.9801 72.0818C76.1723 72.28 74.6374 72.2815 73.8807 72.0848C73.0446 71.8675 71.7567 71.1947 71.146 70.6561C70.6312 70.2021 65.0005 65.0759 56.1175 56.9741C53.9684 55.0141 52.2 53.4227 52.1877 53.4378C52.1755 53.4529 51.5084 54.8137 50.7053 56.4618C45.6337 66.87 43.6916 70.7742 43.3778 71.1923C42.2281 72.7238 39.2507 74.366 36.005 75.2585C33.6572 75.9042 31.4881 76.1275 29.461 75.9324Z" fill="black"/>
<path fill-rule="evenodd" clip-rule="evenodd" d="M17.7734 24.5793C16.2427 24.2483 14.7378 23.6084 13.3824 22.7121C12.3171 22.0076 10.7995 20.5021 10.0949 19.4509C9.56992 18.6677 8.72427 17.0043 8.6059 16.522L8.54248 16.2637L13.1352 16.3283C15.6611 16.3639 17.974 16.4188 18.2748 16.4504L18.8217 16.5079L18.9262 19.913C18.9836 21.7858 19.0349 23.6348 19.0401 24.0219L19.0497 24.7256L18.7078 24.7165C18.5198 24.7115 18.0993 24.6497 17.7734 24.5793Z" fill="black"/>
<path fill-rule="evenodd" clip-rule="evenodd" d="M31.1773 18.0838C31.1753 18.0517 31.3579 16.3151 31.5832 14.2247C31.8085 12.1343 31.993 10.2131 31.9934 9.95528C31.996 8.08735 30.983 6.15038 29.4858 5.16044C28.5137 4.51772 28.1458 4.43508 23.2205 3.75328C20.701 3.40452 17.3679 2.94232 15.8136 2.72616L12.9878 2.33319L13.6259 1.91815C15.6066 0.629793 17.7311 0.00892583 20.1892 0.000107482C22.3257 -0.00757798 24.0251 0.396455 25.8865 1.35464C27.1257 1.99252 27.9164 2.57896 28.9904 3.65665C30.6879 5.36 31.8096 7.4416 32.3342 9.8618C32.4593 10.4388 32.4951 11.0231 32.4939 12.4671C32.4924 14.2156 32.4765 14.3892 32.2329 15.3274C32.0902 15.8768 31.8527 16.6295 31.7051 17C31.4356 17.6765 31.1841 18.1929 31.1773 18.0838Z" fill="black"/>
</g>
<defs>
<clipPath id="clip0_752_152">
<rect width="82" height="76" fill="white"/>
</clipPath>
</defs>
</svg>
