<svg width="76" height="69" viewBox="0 0 76 69" fill="none" xmlns="http://www.w3.org/2000/svg">
<g clip-path="url(#clip0_752_90)">
<path fill-rule="evenodd" clip-rule="evenodd" d="M25.3689 68.5447C24.9498 68.126 24.9189 68.0138 24.9139 66.8927C24.8989 63.5363 24.0483 61.6077 21.2939 58.6851C19.5025 56.7842 18.3198 54.395 17.8973 51.8236L17.6499 50.3182L16.5546 50.0471C13.9736 49.4081 11.8835 48.0843 8.84252 45.1625C7.62333 43.9911 6.46757 43.0012 6.27417 42.9627C6.08078 42.9243 5.42221 42.8182 4.8107 42.727C2.59658 42.3968 1.02217 41.5288 0.358297 40.2722C0.0146126 39.6217 0.000488281 39.4592 0.000488281 36.1556C0.000488281 27.7104 0.751142 25.7958 6.43511 19.7439C7.70486 18.392 8.72504 17.2671 8.70217 17.2443C8.67931 17.2214 7.69843 17.7471 6.52247 18.4124C3.24265 20.2681 3.113 20.3252 2.37165 20.2417C0.397042 20.0194 -0.382207 17.6848 1.07671 16.3623C1.26294 16.1934 3.08496 15.1125 5.12562 13.9603L8.83591 11.8653L9.71386 10.1186C11.1427 7.2759 11.666 7.01264 15.7295 7.09249C18.103 7.13913 18.4481 7.17991 19.0118 7.48028C19.9955 8.00457 20.5652 8.74165 20.9776 10.0238C21.0584 10.2751 21.5615 10.2927 28.6647 10.2927H36.2654L36.4367 9.61298C36.5364 9.21728 36.769 8.80669 36.9933 8.63044L37.3786 8.32767V4.45957C37.3786 2.08705 37.4402 0.47655 37.5379 0.294232C37.7183 -0.042635 38.4397 -0.110794 38.7322 0.181402C38.8661 0.315185 38.9168 1.44157 38.9168 4.28471V8.2036L39.3948 8.6963C39.6577 8.96728 39.9201 9.42005 39.9779 9.70245L40.0831 10.2159H47.5215H54.96L55.1682 9.61518C55.4675 8.75159 56.0484 8.05719 56.8804 7.56857L57.6059 7.14256H60.6054C63.404 7.14256 63.6473 7.16526 64.2392 7.48157C65.1137 7.94892 65.6238 8.59974 66.3835 10.2176L67.0338 11.6024L71.1414 13.9057C73.868 15.4345 75.3567 16.3592 75.5691 16.6559C75.7579 16.9195 75.9149 17.4236 75.9519 17.8852C76.0273 18.8242 75.6028 19.5808 74.7537 20.0206C73.8093 20.5099 73.2035 20.323 70.1108 18.5885C68.5629 17.7204 67.2446 16.9814 67.1811 16.9463C66.8249 16.7489 67.2606 17.2587 68.9612 19.0295C75.1733 25.4976 75.9582 27.3632 75.9965 35.7502C76.0165 40.148 75.987 40.2873 74.8188 41.3146C73.9974 42.0369 72.7667 42.5226 71.231 42.7305C70.5898 42.8173 69.9084 42.9205 69.7166 42.9597C69.5249 42.999 68.3808 43.9846 67.1743 45.15C64.1501 48.0712 62.3836 49.212 59.6824 49.9884C58.5491 50.3141 58.3692 50.4126 58.3316 50.7279C58.1853 51.9542 57.7492 53.7024 57.3507 54.6597C56.7108 56.1969 55.9801 57.2745 54.2517 59.2301C51.9351 61.8514 51.3579 63.2149 51.1442 66.5723C51.0432 68.159 51.0214 68.2379 50.5806 68.6084C49.924 69.1603 49.1803 69.1288 48.5742 68.5233L48.1031 68.0527L48.1902 66.0261C48.3563 62.1604 49.1799 60.3606 52.4931 56.6231C53.7759 55.1761 54.5973 53.7115 54.9886 52.1734C55.3676 50.6842 55.3392 50.5876 54.491 50.4792C50.4217 49.9591 49.6842 49.6277 49.6842 48.3191C49.6842 47.9054 49.8035 47.6449 50.153 47.2957C50.6756 46.7737 50.709 46.773 53.1451 47.2358C54.708 47.5328 56.5649 47.5419 58.0407 47.2598C60.5114 46.7875 62.1297 45.7907 65.1615 42.8734C67.7467 40.3858 68.3662 40.0162 70.3229 39.7941C71.6732 39.6408 72.5867 39.3544 72.8583 38.9991C73.1227 38.6532 72.9959 31.8016 72.6954 30.2011C72.1067 27.065 70.8701 25.231 65.9034 20.1275C64.724 18.9156 63.8415 17.8787 63.7811 17.6339C63.7102 17.3469 63.8485 16.6869 64.2196 15.5401L64.7615 13.8654L63.9809 12.1954C63.5515 11.2769 63.0902 10.4039 62.9557 10.2554C62.7449 10.0227 62.418 9.98541 60.5902 9.98541C58.0189 9.98541 57.9563 10.0257 58.2036 11.5195C58.3437 12.3657 58.3176 12.5787 57.9276 13.775L57.4969 15.0961L59.2312 16.727C60.8549 18.2539 61.0089 18.451 61.6472 19.8189C63.742 24.3078 64.4154 26.4681 64.6179 29.3476C64.6981 30.4885 64.8663 31.9807 64.9918 32.6634C65.3139 34.4158 65.2896 34.7681 64.8144 35.2428C64.2611 35.7956 63.3259 35.8065 62.7619 35.2667L62.3636 34.8854L61.7523 35.1876C60.4412 35.8356 58.5922 35.8102 56.6258 35.1171C56.259 34.9878 55.3424 34.8071 54.5887 34.7156C52.9357 34.5148 51.5301 34.6928 50.0842 35.2859C48.9661 35.7447 48.495 35.7032 47.8835 35.0924C47.547 34.7562 47.5035 34.6021 47.5648 33.964L47.6359 33.225L44.853 32.0339C43.3224 31.3787 41.918 30.7051 41.732 30.5368C41.0053 29.8795 41.1666 28.6221 42.0351 28.1734C42.3524 28.0095 42.6964 27.9659 43.1435 28.0328L43.7917 28.13L44.1953 27.2316C44.9159 25.6275 45.1047 24.4431 45.0341 21.9715C44.9664 19.6076 44.7145 18.5276 43.9952 17.5184L43.6643 17.0541H45.4309H47.1976L47.4349 17.7072C47.9137 19.0254 48.0153 19.6322 48.0973 21.6642C48.1998 24.2036 47.9205 26.031 47.1274 28.0113C46.8275 28.7603 46.6202 29.4112 46.6669 29.4579C46.7136 29.5045 47.8406 30.0174 49.1713 30.5976L51.5908 31.6526L53.214 31.6579C54.9063 31.6635 56.3458 31.8796 58.2981 32.421C59.7703 32.8293 60.2213 32.7437 61.0519 31.8983L61.7139 31.2244L61.6065 29.556C61.4784 27.5681 61.0919 26.2936 59.5204 22.6774L58.4456 20.2043L56.3358 18.1883C54.2701 16.2143 54.2264 16.1589 54.2427 15.5375L54.2593 14.9028H38.0008H21.7423L21.8073 15.3451C21.9059 16.0165 21.6108 16.4133 19.7097 18.1656L17.961 19.7773L16.8128 22.5263C15.0844 26.6645 14.5864 28.2423 14.4736 29.9376L14.3782 31.3729L15.0251 31.9685C15.3808 32.2961 15.8439 32.6073 16.0542 32.66C16.2684 32.7137 16.9993 32.6063 17.7168 32.4156C19.8435 31.8504 21.0723 31.6651 22.7366 31.6587C24.3017 31.6527 24.35 31.6414 26.4282 30.7948C27.5864 30.323 28.6114 29.8563 28.706 29.7576C28.8909 29.5645 29.239 27.956 29.1329 27.7845C29.0977 27.7275 28.8638 27.6359 28.6133 27.5809C28.0745 27.4627 27.3797 26.697 27.3819 26.224C27.3828 26.0403 27.5561 24.7836 27.767 23.4313C28.1754 20.8122 28.549 19.3627 29.1828 17.9377L29.5758 17.0541H31.4085H33.2411L32.866 17.5536C32.3254 18.2732 31.7682 19.4398 31.4165 20.5885C30.9864 21.9932 30.522 24.9385 30.7202 25.0045C30.8067 25.0333 31.1808 25.2098 31.5514 25.3966C32.4013 25.8251 32.5682 26.26 32.3616 27.5078C32.2262 28.3258 32.2364 28.4231 32.4476 28.3289C32.5793 28.2702 32.9449 28.1917 33.26 28.1544C33.7409 28.0976 33.9076 28.1613 34.2983 28.5516C34.8483 29.1011 34.9383 30.0236 34.4945 30.5621C34.3416 30.7476 32.9627 31.4067 31.3027 32.0878C29.206 32.9481 28.3966 33.3491 28.4382 33.507C28.6773 34.4138 28.2266 35.3177 27.4202 35.5488C27.0564 35.653 26.7334 35.5949 25.9618 35.2865C23.8529 34.4437 21.8883 34.439 18.8367 35.2695C16.9178 35.7917 15.6583 35.7966 14.5422 35.2862L13.7092 34.9052L13.6116 35.3493C13.3596 36.4954 11.8855 36.9418 11.0637 36.1208C10.5239 35.5815 10.5023 35.2115 10.9165 33.5935C11.0947 32.8974 11.2842 31.3796 11.3777 29.899C11.589 26.5539 12.1842 24.545 14.3158 19.982C15.0414 18.429 15.1467 18.2911 16.8035 16.7257L18.5335 15.0911L18.0956 13.7476C17.6923 12.5105 17.6713 12.3343 17.831 11.5237C18.0295 10.5158 17.947 10.1704 17.4805 10.055C17.2995 10.0102 16.2515 9.99353 15.1517 10.0179L13.1521 10.0622L12.2102 11.9552L11.2683 13.8481L11.8031 15.4896C12.2236 16.7805 12.3098 17.2343 12.2066 17.6148C12.1207 17.9314 11.1751 19.0469 9.47111 20.8419C5.24675 25.2916 4.16907 26.8354 3.52141 29.3649C3.23593 30.4798 3.18148 31.2191 3.11796 34.8427L3.04454 39.0316L3.75202 39.3443C4.14114 39.5162 5.05312 39.7243 5.77865 39.8067C7.6729 40.0217 8.27744 40.3855 10.8219 42.8419C13.1092 45.0499 14.1534 45.8386 15.7423 46.5584C17.7095 47.4495 20.3782 47.7041 22.8427 47.2358C25.1836 46.7911 25.2682 46.791 25.7925 47.2317C26.0535 47.4511 26.3036 47.8216 26.3483 48.0549C26.4548 48.6118 26.1137 49.404 25.6629 49.6465C25.1945 49.8984 22.8615 50.3857 22.0736 50.3961C21.1868 50.4078 20.7661 50.5528 20.7661 50.8467C20.7661 51.4464 21.273 53.0219 21.8336 54.1649C22.2405 54.9944 22.8231 55.8191 23.6251 56.7004C26.6114 59.9824 27.5356 61.893 27.8456 65.4255C28.0338 67.5706 27.9506 68.1068 27.3513 68.6106C26.7069 69.1522 25.9519 69.1271 25.3689 68.5447Z" fill="black"/>
<path fill-rule="evenodd" clip-rule="evenodd" d="M38.2481 57.1231C38.075 56.8438 38.0632 56.5115 38.1868 55.3943C38.3756 53.6878 38.3706 43.7438 38.1798 41.3337C38.0284 39.4228 38.1567 38.875 38.7555 38.875C39.6534 38.875 39.7628 39.9181 39.7628 48.4792C39.7628 55.1581 39.6692 56.8488 39.2779 57.2397C38.9454 57.5719 38.4946 57.5208 38.2481 57.1231Z" fill="black"/>
</g>
<defs>
<clipPath id="clip0_752_90">
<rect width="76" height="69" fill="white"/>
</clipPath>
</defs>
</svg>
