<?xml version="1.0" encoding="UTF-8"?>
<svg xmlns="http://www.w3.org/2000/svg" xmlns:xlink="http://www.w3.org/1999/xlink" width="97.701mm" height="92.477mm" viewBox="-416.684448 8.578100 97.700806 92.476677">
    <path style="stroke:none;fill:#ff0000;fill-rule:evenodd" d="M-415.168976,99.551865C-417.189606,97.531219,-417.189606,95.323517,-415.168976,93.302887C-414.342377,92.476273,-413.127686,91.793015,-412.469666,91.784531C-408.812439,91.73732,-341.508423,87.247299,-341.297577,87.036453C-341.158752,86.897644,-341.558044,80.971542,-342.184875,73.867325C-342.980194,64.853638,-343.509644,60.950581,-343.937103,60.950581C-344.273987,60.950581,-345.73584,61.175537,-347.185669,61.450493C-348.635498,61.725441,-350.171814,61.816055,-350.599701,61.651855C-351.027588,61.487656,-351.743958,60.093479,-352.191559,58.553692C-353.486908,54.097897,-353.389557,54.030045,-340.78006,50.598869C-331.623474,48.107273,-329.884644,47.771702,-329.00824,48.327068C-327.881866,49.040817,-326.800842,52.408222,-326.735901,55.405308C-326.689209,57.560272,-327.309296,58.084137,-330.56015,58.636135C-331.686096,58.82732,-332.961365,59.078682,-333.394104,59.194714C-334.088654,59.380951,-333.985321,61.560959,-332.512878,77.787979C-331.595459,87.898254,-330.96994,96.803741,-331.122864,97.577957C-331.275757,98.352173,-331.992737,99.451187,-332.716125,100.020203C-334.008331,101.036636,-334.729553,101.054779,-373.848724,101.054779L-413.666046,101.054779L-415.168976,99.551865z"/>
    <path style="stroke:none;fill:#ff0000;fill-rule:evenodd" d="M-400.218903,85.808075C-400.218903,85.434235,-394.239349,67.194031,-393.279449,64.639801C-393.084412,64.120758,-392.703186,64.210632,-391.677429,65.017502C-390.937103,65.599854,-388.963348,66.358879,-387.291321,66.704231C-385.619263,67.049576,-384.335205,67.57373,-384.437805,67.868988C-384.540436,68.164261,-385.96521,72.281311,-387.604004,77.01796L-390.583618,85.630081L-393.794525,85.630081C-395.560516,85.630081,-397.728455,85.774689,-398.612152,85.951431C-399.49585,86.128174,-400.218903,86.06366,-400.218903,85.808075z"/>
    <path style="stroke:none;fill:#ff0000;fill-rule:evenodd" d="M-376.554626,81.015762C-378.789246,78.781128,-378.634399,77.971893,-373.774994,66.48819C-372.828186,64.25074,-371.852783,64.713303,-381.682953,62.738037C-388.220032,61.42448,-390.02417,60.531231,-390.748291,58.249645C-390.922241,57.70163,-389.970551,53.337578,-388.631958,48.544872C-387.294128,43.754944,-386.306824,39.728607,-386.437988,39.597462C-386.569122,39.466312,-387.766541,39.73045,-389.098907,40.184429C-391.34433,40.949512,-391.655365,41.27824,-393.354523,44.681797C-395.720062,49.420166,-396.882629,50.66745,-398.933502,50.66745C-400.822388,50.66745,-402.789673,48.875229,-402.789673,47.154415C-402.789673,45.714874,-398.078705,36.288151,-396.80603,35.181095C-395.482056,34.029366,-384.941315,30.615353,-382.709381,30.615353C-380.251495,30.615353,-370.102936,34.347023,-368.48999,35.843884C-367.779724,36.503017,-366.177704,38.362217,-364.929901,39.975441L-362.661163,42.908573L-359.630402,41.132294C-357.963501,40.155338,-356.107483,39.35601,-355.50592,39.35601C-353.89743,39.35601,-351.888184,41.602097,-351.888184,43.400188C-351.888184,45.322754,-353.384125,46.603619,-359.124084,49.595753C-364.637238,52.469646,-365.353699,52.337696,-368.655975,47.840199C-370.005859,46.001759,-371.266327,44.497574,-371.457031,44.497574C-371.778778,44.497574,-374.779114,52.046612,-375.127228,53.731972C-375.244202,54.298359,-373.979156,54.758049,-369.977112,55.603401C-363.756805,56.917305,-362.161041,58.004951,-362.188965,60.911667C-362.209442,63.042965,-368.755768,79.115829,-370.319489,80.874146C-371.67691,82.400482,-375.092316,82.478043,-376.554626,81.015762z"/>
    <path style="stroke:none;fill:#ff0000;fill-rule:evenodd" d="M-339.716614,41.284096C-340.40625,40.647827,-343.320496,37.177273,-346.192719,33.571751L-351.414978,27.016256L-349.337891,27.016256C-347.253632,27.016256,-345.938019,26.179676,-344.78656,24.122156C-344.156525,22.996321,-344.338623,22.815853,-341.866486,27.016256C-338.240814,33.176586,-337.298279,33.537354,-335.090515,29.609844C-333.705933,27.146687,-333.574036,27.056826,-331.129089,26.910522C-328.254883,26.738527,-327.041779,25.628534,-328.201233,24.231495C-328.687866,23.645145,-329.789886,23.417162,-332.137573,23.417162C-335.296875,23.417162,-335.436615,23.473825,-336.638245,25.242178L-337.878357,27.067196L-340.279175,22.972105C-343.907776,16.782682,-344.518677,16.591442,-347.013916,20.863857L-348.505127,23.417162L-351.419678,23.417162C-354.120911,23.417162,-354.375122,23.313692,-354.893036,22.003233C-356.516327,17.896088,-355.95575,14.338981,-353.246765,11.55659C-349.13443,7.332789,-343.511444,7.623024,-339.073456,12.288157L-337.31308,14.138632L-335.597443,12.134309C-333.408203,9.576675,-330.089661,8.244902,-327.087769,8.719282C-320.889832,9.698734,-317.149109,16.553917,-319.898346,21.894518C-321.1633,24.351789,-334.686859,41.251125,-335.913757,41.907753C-337.414276,42.7108,-338.33374,42.560017,-339.716614,41.284096z"/>
    <path style="stroke:none;fill:#ff0000;fill-rule:evenodd" d="M-373.739838,29.858715C-379.369781,27.841541,-380.884064,20.928509,-376.628174,16.67264C-370.797577,10.842041,-361.259888,16.272041,-363.275024,24.274862C-363.875458,26.659344,-367.087616,30.095394,-368.728302,30.108215C-369.222351,30.112078,-370.089325,30.223316,-370.654907,30.355413C-371.220459,30.487511,-372.608704,30.263998,-373.739838,29.858715z"/>
</svg>
