<svg width="86" height="64" viewBox="0 0 86 64" fill="none" xmlns="http://www.w3.org/2000/svg">
<g clip-path="url(#clip0_752_106)">
<path fill-rule="evenodd" clip-rule="evenodd" d="M10.2976 56.9667V49.933H6.82879C4.89834 49.933 3.12373 49.8881 2.82743 49.8317C1.68087 49.6137 0.751403 48.8975 0.265205 47.8574C0.0423978 47.3808 -0.000387718 47.1522 2.63437e-06 46.4411C0.000393569 45.7183 0.0427178 45.5011 0.286509 44.971C0.617079 44.2522 1.25489 43.6053 1.9895 43.2438L2.48699 42.999H37.3613H72.2356L72.7332 43.2442C73.4049 43.5752 74.1315 44.3259 74.4528 45.0208C74.6725 45.496 74.7179 45.7368 74.7203 46.4411C74.7227 47.1554 74.6812 47.3787 74.4575 47.8574C73.9712 48.8975 73.0418 49.6137 71.8952 49.8317C71.5989 49.8881 69.8243 49.933 67.8939 49.933H64.425V56.9667V64.0004H63.7285H63.032V56.9667V49.933H37.3116H11.5911V56.9667V64.0004H10.9444H10.2976V56.9667Z" fill="black"/>
<path fill-rule="evenodd" clip-rule="evenodd" d="M81.9557 62.9427C81.3985 62.6643 80.8544 62.0769 80.5712 61.4479C80.4081 61.0856 80.3913 60.3945 80.3453 52.1272C80.2957 43.2235 80.2949 43.1967 80.0813 42.7988C79.8567 42.3804 79.5992 42.1164 79.1015 41.7946C78.8286 41.6181 78.5513 41.5973 75.8678 41.5517L72.9326 41.5018L72.9066 37.4861C72.886 34.3065 72.9067 33.4707 73.0061 33.4717C73.0751 33.4724 75.2395 33.6497 77.8158 33.8657C82.8689 34.2895 83.0825 34.3275 84.0627 34.9785C85.0177 35.6128 85.7409 36.7766 85.9254 37.976C85.9857 38.3684 86.0121 42.8696 85.9948 49.8325L85.967 61.0566L85.7443 61.5095C85.46 62.0879 84.7865 62.7775 84.2755 63.0135C83.6542 63.3003 82.6074 63.2684 81.9557 62.9427Z" fill="black"/>
<path fill-rule="evenodd" clip-rule="evenodd" d="M20.147 41.4343C18.643 41.2969 17.3679 40.6731 16.2178 39.5123C14.9897 38.2728 14.4144 36.9902 14.3134 35.2665C14.2029 33.3811 14.8832 31.5739 16.2013 30.2508C17.46 28.9874 18.7714 28.3945 20.4964 28.3091C22.5385 28.2081 24.1916 28.8485 25.5932 30.2838C26.8188 31.5388 27.4318 33.0197 27.4493 34.7676C27.4613 35.9597 27.329 36.6056 26.8672 37.6111C25.6545 40.2515 23.1008 41.7044 20.147 41.4343Z" fill="black"/>
<path fill-rule="evenodd" clip-rule="evenodd" d="M29.4094 41.1777C29.1423 40.1736 28.7482 35.9072 28.8506 35.1283C28.8803 34.9024 29.0206 31.1933 29.1623 26.8858C29.3041 22.5782 29.4277 19.0459 29.4369 19.0361C29.4462 19.0264 29.7667 19.09 30.1491 19.1776C31.0756 19.3897 33.1009 19.3897 34.0273 19.1776C34.4098 19.09 34.7315 19.0272 34.7422 19.038C34.753 19.0488 34.8508 21.3283 34.9595 24.1037C35.1748 29.599 35.1766 29.6121 35.781 30.1231C36.4345 30.6756 36.6238 30.7067 38.141 30.5118C40.0931 30.2611 44.7655 30.26 46.5653 30.5098C48.2732 30.7469 50.615 31.2173 51.789 31.5591L52.7342 31.8342L52.758 36.693L52.7817 41.5518H41.1453H29.5089L29.4094 41.1777Z" fill="black"/>
<path fill-rule="evenodd" clip-rule="evenodd" d="M54.1768 36.6139C54.1768 31.8295 54.1829 31.6691 54.3732 31.4783C54.4813 31.3699 54.689 31.2513 54.8348 31.2146C54.9806 31.1779 58.6644 31.4224 63.0211 31.7579L70.9423 32.3678L71.2159 32.6716L71.4896 32.9754V37.2639V41.5524H62.8332H54.1768V36.6139Z" fill="black"/>
<path fill-rule="evenodd" clip-rule="evenodd" d="M31.0451 17.8961C27.5057 17.5225 24.5544 15.0136 23.4629 11.4505C23.2188 10.6534 23.1943 10.4285 23.1943 8.97736C23.1943 7.51949 23.2181 7.30319 23.4682 6.48314C24.4389 3.30144 26.8133 1.01611 29.9686 0.226711C31.1867 -0.0780389 32.9725 -0.0752688 34.2273 0.233319C37.2221 0.969814 39.6308 3.21265 40.6331 6.19796C41.1685 7.79282 41.1776 10.0121 40.6551 11.6212C39.5123 15.1412 36.664 17.4957 33.0616 17.8985C32.5305 17.9579 32.0382 18.0005 31.9676 17.9932C31.897 17.9859 31.4819 17.9422 31.0451 17.8961ZM34.0619 14.8828C35.9914 14.21 37.4559 12.7054 38.0621 10.7732C38.3911 9.72482 38.3742 8.16206 38.0223 7.07393C37.4927 5.43647 36.36 4.12893 34.8309 3.38991C33.4206 2.70828 32.0276 2.56133 30.5554 2.93888C29.4106 3.23246 28.6706 3.66723 27.7552 4.58388C26.4564 5.88454 25.8855 7.23106 25.8925 8.97736C25.8995 10.7383 26.4673 12.0755 27.7574 13.3704C28.6494 14.2656 29.6043 14.8139 30.7118 15.0666C31.66 15.283 33.1485 15.2013 34.0619 14.8828ZM31.5906 13.8542C29.9695 13.5757 28.6153 12.6789 27.8605 11.3841C26.775 9.52188 27.102 7.06468 28.6407 5.52183C30.2895 3.86858 32.8119 3.60034 34.7248 4.87485C36.8763 6.30837 37.5646 8.94789 36.3923 11.2692C36.0834 11.8808 35.0898 12.8863 34.4354 13.2494C33.6355 13.6934 32.3031 13.9766 31.5906 13.8542ZM32.9338 10.9363C34.5714 10.1884 34.6531 7.88497 33.0702 7.09401C31.5951 6.35692 29.9842 7.33424 29.9844 8.96627C29.9845 9.6038 30.0963 9.90232 30.5134 10.3787C31.1324 11.0856 32.1124 11.3114 32.9338 10.9363ZM31.8251 9.72554C31.3594 9.53914 31.1465 8.87874 31.4309 8.50302C31.9011 7.88195 32.8728 8.20492 32.8809 8.98491C32.8861 9.48966 32.2865 9.91025 31.8251 9.72554Z" fill="black"/>
</g>
<defs>
<clipPath id="clip0_752_106">
<rect width="86" height="64" fill="white"/>
</clipPath>
</defs>
</svg>
