<svg width="104" height="55" viewBox="0 0 104 55" fill="none" xmlns="http://www.w3.org/2000/svg">
<g clip-path="url(#clip0_762_313)">
<path fill-rule="evenodd" clip-rule="evenodd" d="M0 52.3841C0 50.0452 0.0448355 49.711 0.422672 49.232C0.819749 48.7286 0.949647 48.6962 2.57023 48.6962C3.76241 48.6962 4.32519 48.6176 4.39237 48.442C4.44582 48.3022 5.95613 40.4092 7.74858 30.9021C9.54103 21.3949 11.0521 13.4263 11.1067 13.1941C11.19 12.8385 10.7877 12.5068 8.56132 11.0954C5.83841 9.36929 5.30198 8.87402 5.30198 8.08622C5.30198 7.65575 7.51122 4.19166 8.42196 3.19411C9.36573 2.16043 9.46232 2.20897 20.8793 9.45459C26.6989 13.1479 31.4834 16.1444 31.5114 16.1133C31.5394 16.0821 33.0895 13.5859 34.9561 10.566C36.8226 7.54603 38.5815 4.86931 38.8647 4.61764C39.4945 4.05799 39.9588 4.04307 40.9562 4.55049C41.8072 4.98345 42.2943 5.80681 42.0925 6.47126C42.02 6.71007 40.4483 9.35341 38.5999 12.3454L35.2392 17.7853L33.9843 17.7877C31.4771 17.7925 28.7092 18.9243 26.7257 20.7556L25.5235 21.8656L21.0029 18.9957C18.5166 17.4173 16.4386 16.1695 16.3851 16.2228C16.3091 16.2986 10.1961 48.2939 10.1961 48.616C10.1961 48.6601 23.1087 48.6962 38.8907 48.6962C63.261 48.6962 67.5404 48.654 67.2868 48.4163C67.1225 48.2623 62.1705 45.0917 56.2823 41.3705C50.3941 37.6494 45.5022 34.5395 45.4115 34.4599C45.3208 34.3802 45.4582 33.6843 45.7168 32.9136C46.3101 31.1452 46.3592 27.5885 45.8102 26.1422C45.6232 25.6494 45.4962 25.2202 45.5281 25.1883C45.5601 25.1565 49.6353 27.6939 54.5844 30.827L63.5826 36.5236L63.3904 37.2176C63.1649 38.032 63.4608 39.356 64.0538 40.1865C64.5531 40.8858 65.991 41.5785 66.943 41.5785C67.3519 41.5785 68.199 41.3874 68.8253 41.1537C69.4516 40.92 70.0848 40.7751 70.2325 40.8316C70.3802 40.8881 72.6831 42.317 75.3501 44.0068C78.0171 45.6966 80.2213 47.0541 80.2483 47.0234C80.2754 46.9927 84.3506 40.6532 89.3042 32.9357C94.2578 25.2181 98.4667 18.7494 98.6573 18.5607C99.3383 17.8865 99.9422 17.9281 101.332 18.7449C103.177 19.8296 104 20.6437 104 21.3838C104 21.8291 101.802 25.4074 95.5371 35.1592C90.8826 42.4048 87.0744 48.4147 87.0744 48.5146C87.0744 48.6145 88.1654 48.6962 89.4989 48.6962C92.9185 48.6962 92.8661 48.6425 92.953 52.2366L93.0197 55.0004H46.5099H0V52.3841Z" fill="black"/>
<path fill-rule="evenodd" clip-rule="evenodd" d="M74.6351 41.574C73.885 41.3997 71.5829 40.3291 71.5831 40.1546C71.5832 40.0987 72.1084 39.8261 72.7502 39.5488C74.2723 38.8911 77.6519 36.8603 79.3266 35.5969C83.7863 32.2327 88.3286 26.1577 89.3199 22.2317C89.9078 19.9036 88.2095 17.7849 85.7556 17.7849C84.018 17.7849 83.0913 18.5929 81.8832 21.1614C79.6222 25.9685 75.914 29.6488 70.5411 32.4183L68.1572 33.6471L68.033 32.3761C67.9647 31.677 67.7626 29.1833 67.5839 26.8345C67.4052 24.4856 67.1981 22.5051 67.1235 22.4333C67.0491 22.3615 64.0975 21.0967 60.5646 19.6227C57.0316 18.1486 53.778 16.7432 53.3344 16.4994C52.8908 16.2557 52.2484 15.6595 51.907 15.1745C51.3448 14.3761 51.2861 14.144 51.2861 12.7193C51.2861 11.3422 51.3563 11.0402 51.8487 10.2983C52.1581 9.83203 52.7937 9.19812 53.2611 8.88959C53.9898 8.40861 54.3168 8.32911 55.5535 8.33211C56.96 8.33556 57.2045 8.42341 65.3561 11.8542C69.9541 13.7895 74.0156 15.6006 74.3815 15.8789C75.5695 16.7825 75.882 17.7205 76.1965 21.3258C76.3522 23.1117 76.5106 24.6037 76.5484 24.6414C76.5862 24.679 77.4958 23.2661 78.5697 21.5016C81.3116 16.9964 81.8271 16.2949 82.9316 15.5653C85.6834 13.7476 88.0773 14.036 90.2914 16.452C91.9847 18.2995 92.6888 20.8943 92.1719 23.3815C91.6604 25.8432 89.1387 30.8214 86.9496 33.6912C85.663 35.3778 82.1515 38.8603 80.5571 40.0309C78.617 41.4551 76.4987 42.0071 74.6351 41.574Z" fill="black"/>
<path fill-rule="evenodd" clip-rule="evenodd" d="M66.1727 40.8191C65.5158 40.6551 64.6608 39.965 64.3342 39.3353C63.691 38.0948 64.1633 36.06 65.2263 35.4927C65.4468 35.375 66.7455 34.826 68.1123 34.2726C73.8493 31.9498 78.2736 28.4407 81.1923 23.8982C81.7269 23.0662 82.3672 21.8765 82.615 21.2545C83.2273 19.7184 83.677 19.1153 84.5014 18.7252C86.4472 17.8044 88.483 18.9702 88.6607 21.1071C88.9505 24.5923 83.0143 32.4414 77.2052 36.2541C74.6405 37.9374 71.6387 39.4441 69.0623 40.3412C67.2762 40.9631 66.9592 41.0155 66.1727 40.8191Z" fill="black"/>
<path fill-rule="evenodd" clip-rule="evenodd" d="M32.2757 39.6442C28.5774 38.8428 25.3221 35.7405 24.3752 32.1151C23.736 29.6676 24.0828 26.5741 25.2391 24.4097C26.0392 22.9121 28.2048 20.8113 29.751 20.033C36.7666 16.5012 45.0665 21.5649 45.0665 29.3768C45.0665 32.1867 44.0297 34.6696 42.0077 36.7019C39.3252 39.3981 35.9078 40.4312 32.2757 39.6442ZM36.5555 33.0043C38.1719 32.1939 39.0724 30.0619 38.5473 28.2889C37.9917 26.413 36.4925 25.2805 34.5645 25.2805C30.6293 25.2805 28.8936 30.0951 31.9292 32.5904C33.2417 33.6693 34.9281 33.8202 36.5555 33.0043ZM33.0143 31.7622C30.6207 30.1676 31.6983 26.5313 34.5645 26.5313C35.712 26.5313 36.6498 27.1654 37.1414 28.2738C38.2862 30.8547 35.3621 33.3263 33.0143 31.7622Z" fill="black"/>
<path fill-rule="evenodd" clip-rule="evenodd" d="M42.0203 20.4005C41.1077 19.5866 38.4782 18.1914 37.857 18.1914C37.6725 18.1914 37.5215 18.1039 37.5215 17.9968C37.5215 17.698 47.706 1.65232 48.0791 1.36329C48.7747 0.824438 49.7895 1.07747 51.3869 2.1881C53.0774 3.36347 53.5436 4.03135 53.2363 4.83741C53.0637 5.29037 43.3804 20.7302 43.0545 21.0722C42.9835 21.1467 42.5181 20.8445 42.0203 20.4005Z" fill="black"/>
<path fill-rule="evenodd" clip-rule="evenodd" d="M92.7294 14.7328C90.583 14.3599 88.2632 12.6071 87.3123 10.6398C85.5087 6.90817 87.1292 2.44468 90.9489 0.623022C92.1192 0.064875 92.4773 -0.00797729 94.0077 0.00063219C96.3141 0.0136171 97.709 0.556622 99.223 2.03068C100.866 3.6301 101.44 4.99447 101.446 7.31188C101.45 8.88701 101.373 9.30763 100.893 10.3293C99.9509 12.335 98.6275 13.6155 96.7935 14.2959C95.4627 14.7897 93.9763 14.9494 92.7294 14.7328Z" fill="black"/>
</g>
<defs>
<clipPath id="clip0_762_313">
<rect width="104" height="55" fill="white"/>
</clipPath>
</defs>
</svg>
