<?xml version="1.0" encoding="UTF-8"?>
<svg xmlns="http://www.w3.org/2000/svg" xmlns:xlink="http://www.w3.org/1999/xlink" width="69.454mm" height="135.211mm" viewBox="-220.661530 -305.394440 69.454071 135.211365">
    <path style="stroke:none;fill:#ff0000;fill-rule:evenodd" d="M-203.243729,-170.541962C-204.897339,-171.148605,-206.604385,-172.989975,-207.102921,-174.704849C-207.483322,-176.013428,-207.401367,-177.339249,-205.516083,-200.373352C-204.422714,-213.732117,-203.528137,-224.767151,-203.528137,-224.89563C-203.528137,-225.024139,-203.829575,-225.129272,-204.197998,-225.129272C-205.139969,-225.129272,-206.465469,-225.740692,-207.160904,-226.496017C-207.485657,-226.848724,-210.607483,-231.17955,-214.098282,-236.120056C-218.121857,-241.81459,-220.509903,-245.433014,-220.621918,-246.004837C-220.723511,-246.523392,-220.624664,-247.708435,-220.389435,-248.792465C-218.527542,-257.372253,-212.302826,-264.176086,-203.587219,-267.157928C-201.123474,-268.000824,-198.906143,-268.239899,-193.498459,-268.245728C-188.819366,-268.250763,-188.584534,-268.225769,-187.53598,-267.611267C-183.37532,-265.172974,-177.820496,-265.229309,-173.863632,-267.749939C-172.108795,-268.867828,-170.111237,-271.082123,-169.162994,-272.960571C-168.372833,-274.525879,-168.251221,-274.63266,-165.574585,-276.111633C-164.050781,-276.953613,-162.800293,-277.715973,-162.795715,-277.805786C-162.791138,-277.895569,-163.969818,-278.839905,-165.415024,-279.904266C-167.86557,-281.709045,-168.080017,-281.941895,-168.596771,-283.359131C-169.693085,-286.365906,-172.586807,-289.439575,-175.493484,-290.684662C-180.093277,-292.65506,-185.175781,-291.946747,-189.043701,-288.796295L-190.555527,-287.56488L-190.714722,-288.291534C-190.802277,-288.691162,-190.914383,-289.152985,-190.963852,-289.317749C-191.210999,-290.140961,-190.404999,-291.928558,-189.184631,-293.263824C-185.113434,-297.718353,-178.662079,-297.609192,-169.930237,-292.937988C-164.926895,-290.261414,-157.277542,-284.673462,-153.348984,-280.825165C-151.864655,-279.371185,-151.409729,-278.743164,-151.264496,-277.947662C-151.018829,-276.602112,-151.536484,-274.939697,-152.466599,-274.087128C-152.873108,-273.714539,-157.977722,-270.73111,-163.810211,-267.457306L-174.414749,-261.504944L-174.421173,-246.608856L-174.427597,-231.712799L-172.16687,-204.148529C-170.923462,-188.988205,-169.97789,-176.081604,-170.065582,-175.467209C-170.285904,-173.923691,-171.656219,-171.996689,-173.21637,-171.036453C-174.349274,-170.339157,-174.761597,-170.236099,-176.390976,-170.24295C-177.794922,-170.24884,-178.537842,-170.395523,-179.359497,-170.829056C-180.73996,-171.557465,-182.292633,-173.352264,-182.631729,-174.611588C-182.774719,-175.142578,-183.722946,-185.80365,-184.738922,-198.302872C-185.754898,-210.802094,-186.65979,-221.713257,-186.749786,-222.549896L-186.913422,-224.071075L-188.739288,-224.071075C-189.74353,-224.071075,-190.56517,-223.961182,-190.56517,-223.826859C-190.56517,-223.692535,-191.455475,-212.682922,-192.543625,-199.361023C-193.992188,-181.626617,-194.633469,-174.87236,-194.937988,-174.142288C-196.21846,-171.072281,-200.101318,-169.389191,-203.243729,-170.541962zM-203.116516,-258.13916C-203.301025,-258.323669,-205.372742,-257.052277,-206.772812,-255.89534C-209.019196,-254.039032,-211.547729,-250.155701,-211.790802,-248.18869C-211.838013,-247.806656,-210.412613,-245.558289,-207.496384,-241.414825L-203.131302,-235.212784L-203.062317,-246.614395C-203.024384,-252.885284,-203.048767,-258.071442,-203.116516,-258.13916z"/>
    <path style="stroke:none;fill:#ff0000;fill-rule:evenodd" d="M-183.554581,-267.301514C-189.506165,-268.778625,-193.488678,-274.790802,-192.432037,-280.703369C-191.390472,-286.531616,-186.668396,-290.50116,-180.776794,-290.50116C-174.875458,-290.50116,-170.141434,-286.470337,-169.119705,-280.575592C-167.719376,-272.496582,-175.533569,-265.310791,-183.554581,-267.301514z"/>
    <path style="stroke:none;fill:#ff0000;fill-rule:evenodd" d="M-199.176575,-287.387421C-199.480911,-288.154144,-198.814362,-290.674927,-197.67952,-293.049255C-195.586182,-297.428864,-191.099731,-301.013947,-185.464294,-302.810303L-184.7285,-303.04483L-185.562302,-304.17865C-186.020905,-304.802216,-186.35199,-305.347961,-186.298096,-305.391357C-186.244202,-305.434753,-184.493317,-305.040497,-182.407288,-304.515259L-178.614471,-303.560211L-181.697189,-300.955963L-184.779907,-298.351746L-184.61496,-299.372772C-184.524261,-299.934357,-184.395081,-300.661682,-184.327942,-300.989044C-184.16803,-301.768829,-184.410278,-301.744507,-187.136444,-300.70694C-192.870605,-298.524536,-196.774963,-294.42749,-198.401459,-288.885895C-198.826935,-287.436218,-199.035736,-287.032593,-199.176575,-287.387421z"/>
</svg>
