<svg width="47" height="91" viewBox="0 0 47 91" fill="none" xmlns="http://www.w3.org/2000/svg">
<g clip-path="url(#clip0_752_126)">
<path fill-rule="evenodd" clip-rule="evenodd" d="M11.7868 90.7589C10.6678 90.3506 9.51262 89.1113 9.17526 87.9572C8.91784 87.0765 8.9733 86.1842 10.2491 70.6817C10.989 61.691 11.5943 54.2642 11.5943 54.1777C11.5943 54.0913 11.3903 54.0205 11.141 54.0205C10.5036 54.0205 9.60663 53.609 9.13602 53.1007C8.91626 52.8633 6.80371 49.9485 4.44146 46.6235C1.71869 42.7909 0.102687 40.3557 0.0268861 39.9708C-0.0418624 39.6218 0.0250278 38.8243 0.184209 38.0947C1.44416 32.3203 5.65646 27.7412 11.5544 25.7344C13.2216 25.1671 14.7221 25.0062 18.3815 25.0023C21.5478 24.9989 21.7067 25.0157 22.4163 25.4293C25.2318 27.0703 28.9908 27.0324 31.6685 25.3359C32.856 24.5836 34.2077 23.0933 34.8494 21.8291C35.3841 20.7756 35.4664 20.7037 37.2777 19.7083C38.3089 19.1417 39.1551 18.6286 39.1582 18.5681C39.1613 18.5077 38.3637 17.8722 37.3857 17.1558C35.7274 15.9412 35.5823 15.7845 35.2326 14.8306C34.4907 12.807 32.5325 10.7384 30.5655 9.90039C27.4528 8.57427 24.0135 9.05098 21.396 11.1713L20.373 12.0001L20.2652 11.511C20.206 11.2421 20.1301 10.9312 20.0967 10.8204C19.9294 10.2663 20.4748 9.06323 21.3007 8.16456C24.0557 5.16658 28.4213 5.24004 34.3302 8.38386C37.716 10.1852 42.8924 13.9461 45.5508 16.536C46.5553 17.5146 46.8631 17.9373 46.9614 18.4727C47.1277 19.3782 46.7774 20.4971 46.1479 21.0709C45.8729 21.3216 42.4185 23.3295 38.4717 25.5329L31.2955 29.5389L31.2912 39.5643L31.2868 49.5897L32.8167 68.141C33.6581 78.3442 34.298 87.0306 34.2386 87.4441C34.0895 88.4829 33.1622 89.7798 32.1065 90.4261C31.3398 90.8954 31.0608 90.9647 29.9582 90.9601C29.0081 90.9561 28.5054 90.8574 27.9494 90.5657C27.0152 90.0754 25.9645 88.8675 25.735 88.0199C25.6383 87.6626 24.9966 80.4874 24.3091 72.0752C23.6216 63.663 23.0092 56.3195 22.9483 55.7565L22.8376 54.7327H21.602C20.9224 54.7327 20.3664 54.8067 20.3664 54.8971C20.3664 54.9875 19.764 62.3971 19.0276 71.3631C18.0474 83.2987 17.6134 87.8444 17.4073 88.3358C16.5408 90.402 13.9133 91.5347 11.7868 90.7589ZM11.8729 31.8042C11.748 31.68 10.3461 32.5357 9.39865 33.3143C7.87851 34.5636 6.16744 37.1772 6.00295 38.501C5.971 38.7582 6.93558 40.2714 8.909 43.06L11.8629 47.2341L11.9096 39.5606C11.9352 35.3401 11.9187 31.8498 11.8729 31.8042Z" fill="black"/>
<path fill-rule="evenodd" clip-rule="evenodd" d="M25.1107 25.6373C21.0832 24.6431 18.3882 20.5968 19.1032 16.6176C19.8081 12.695 23.0035 10.0234 26.9904 10.0234C30.9839 10.0234 34.1874 12.7363 34.8788 16.7035C35.8264 22.1409 30.5385 26.9771 25.1107 25.6373Z" fill="black"/>
<path fill-rule="evenodd" clip-rule="evenodd" d="M14.5391 12.1192C14.3331 11.6032 14.7842 9.90665 15.5521 8.30868C16.9687 5.36112 20.0047 2.94828 23.8182 1.7393L24.3162 1.58146L23.7519 0.818375C23.4416 0.398702 23.2175 0.0314042 23.254 0.00219783C23.2905 -0.0270086 24.4753 0.238334 25.8869 0.59183L28.4536 1.2346L26.3675 2.98731L24.2814 4.74L24.393 4.05283C24.4544 3.67487 24.5418 3.18537 24.5872 2.96504C24.6954 2.44023 24.5315 2.4566 22.6867 3.15491C18.8064 4.62371 16.1643 7.3811 15.0636 11.1107C14.7757 12.0864 14.6344 12.358 14.5391 12.1192Z" fill="black"/>
</g>
<defs>
<clipPath id="clip0_752_126">
<rect width="47" height="91" fill="white"/>
</clipPath>
</defs>
</svg>
