<?xml version="1.0" encoding="UTF-8"?>
<svg xmlns="http://www.w3.org/2000/svg" xmlns:xlink="http://www.w3.org/1999/xlink" width="66.399mm" height="135.305mm" viewBox="205.863892 -291.079712 66.398987 135.304520">
    <path style="stroke:none;fill:#ff0000;fill-rule:evenodd" d="M210.096695,-156.108109C207.994629,-156.77066,205.863892,-159.767746,205.863892,-162.061951C205.863892,-162.510223,207.47467,-169.817841,209.443405,-178.301102C213.375809,-195.245819,213.446259,-195.455673,215.662186,-196.825684C216.534256,-197.364838,217.794098,-197.737991,220.417099,-198.234039C222.379761,-198.605209,224.193924,-198.970825,224.448547,-199.046524C224.881927,-199.175339,224.911514,-200.081726,224.911514,-213.22879L224.911514,-227.273438L223.354904,-230.208313C222.498764,-231.822495,219.750046,-237.235062,217.246658,-242.236252L212.695007,-251.329315L213.406052,-262.077515C213.797119,-267.989044,214.164383,-272.983002,214.222198,-273.175201C214.300598,-273.435822,214.535553,-273.376404,215.146332,-272.941498C216.333496,-272.096161,218.89946,-271.370697,220.702286,-271.370697L222.266006,-271.370697L222.272278,-270.510925C222.275726,-270.038025,222.020081,-265.889191,221.704163,-261.29126L221.129761,-252.931412L225.61203,-244.09549L230.094284,-235.259598L239.076965,-235.259598L248.059662,-235.259598L252.529663,-244.122025L256.999695,-252.984467L256.425385,-261.582336C256.109497,-266.311188,255.853958,-270.44809,255.857483,-270.775452C255.863388,-271.323822,255.985153,-271.370697,257.403198,-271.370697C259.124451,-271.370697,261.315491,-271.936615,262.805359,-272.766022C263.349396,-273.068878,263.838348,-273.265717,263.891937,-273.203461C263.945526,-273.141205,264.318634,-268.173279,264.721069,-262.163605L265.452759,-251.236908L259.564911,-239.544556C256.326599,-233.113754,253.573853,-227.73909,253.447723,-227.600861C253.321594,-227.462631,253.218384,-221.006561,253.218384,-213.254059L253.218384,-199.158569L253.813629,-199.03067C254.141006,-198.960327,255.956482,-198.599152,257.848022,-198.228012C260.300201,-197.746887,261.626831,-197.343582,262.470642,-196.822693C264.69693,-195.448486,264.768402,-195.236572,268.690643,-178.378036C270.653656,-169.940674,272.261169,-162.612152,272.262878,-162.092438C272.268555,-160.382919,271.518372,-158.762695,270.15274,-157.534866C268.284058,-155.854752,266.307404,-155.391388,263.963379,-156.083969C262.65152,-156.471558,260.281158,-158.719345,259.973419,-159.867584C259.857147,-160.301437,258.432037,-166.367889,256.806519,-173.348572L253.851044,-186.04071L246.407562,-187.502014C240.371399,-188.687012,238.77356,-188.917755,237.956329,-188.722473C237.402039,-188.589996,234.103226,-187.932434,230.625595,-187.2612L224.302643,-186.040756L221.455414,-173.745422C219.889435,-166.982971,218.415649,-160.832825,218.180344,-160.07843C217.861908,-159.057556,217.423187,-158.410706,216.464767,-157.549011C214.58963,-155.863113,212.426697,-155.373703,210.096695,-156.108109z"/>
    <path style="stroke:none;fill:#ff0000;fill-rule:evenodd" d="M219.669067,-156.754303C219.747147,-157.432861,219.846252,-157.487198,221.141678,-157.561768L222.530563,-157.641739L222.530563,-156.834259C222.530563,-156.030701,222.523422,-156.026794,221.057968,-156.026794C219.607574,-156.026794,219.586624,-156.037766,219.669067,-156.754303z"/>
    <path style="stroke:none;fill:#ff0000;fill-rule:evenodd" d="M255.599335,-156.820435C255.599335,-157.606079,255.614044,-157.61409,257.054382,-157.61409C258.49469,-157.61409,258.509399,-157.606079,258.509399,-156.820435C258.509399,-156.034805,258.49469,-156.026794,257.054382,-156.026794C255.614044,-156.026794,255.599335,-156.034805,255.599335,-156.820435z"/>
    <path style="stroke:none;fill:#ff0000;fill-rule:evenodd" d="M219.445282,-158.78801C219.525543,-158.997177,219.716843,-159.651932,219.870407,-160.243042C220.023972,-160.834152,220.273254,-161.793976,220.424347,-162.375992L220.699097,-163.434204L228.625412,-163.434204L236.551727,-163.434204L236.551727,-172.164352L236.551727,-180.894516L230.636612,-180.894516L224.721497,-180.894516L225.155533,-182.806427L225.589569,-184.718338L232.3582,-186.025177L239.126831,-187.332047L245.824829,-186.031265L252.522827,-184.730499L252.825821,-183.540009C252.992493,-182.885254,253.21077,-182.022156,253.310928,-181.622025L253.493027,-180.894516L247.531982,-180.894516L241.570953,-180.894516L241.640701,-172.230499L241.710449,-163.566467L249.621033,-163.434204L257.531586,-163.30191L257.99707,-161.450073C258.253113,-160.431549,258.546509,-159.330353,258.649109,-159.002975L258.835663,-158.407745L239.067505,-158.407745C221.986786,-158.407745,219.319183,-158.459427,219.445282,-158.78801z"/>
    <path style="stroke:none;fill:#ff0000;fill-rule:evenodd" d="M237.080826,-237.798508C233.617905,-238.378113,230.221115,-240.932404,228.671555,-244.122025C225.205658,-251.256256,229.461441,-259.458893,237.316162,-260.783752C244.86792,-262.057526,251.815079,-255.147293,250.595581,-247.574921C249.55423,-241.108734,243.494278,-236.725037,237.080826,-237.798508z"/>
    <path style="stroke:none;fill:#ff0000;fill-rule:evenodd" d="M217.873505,-273.317749C216.513519,-273.762756,214.616806,-275.054779,213.656296,-276.190491C210.729126,-279.651642,210.884796,-284.941864,214.011719,-288.270416C215.87265,-290.251343,217.838531,-291.079712,220.678711,-291.079712C222.56514,-291.079712,223.171173,-290.965454,224.440704,-290.370422C226.230591,-289.531494,228.037903,-287.76181,228.90593,-285.998138C229.433624,-284.925964,229.530701,-284.322571,229.535492,-282.084991C229.540359,-279.80368,229.45166,-279.257385,228.891083,-278.11673C228.054901,-276.415283,226.194336,-274.565948,224.514694,-273.766785C222.895798,-272.99649,219.547272,-272.770111,217.873505,-273.317749zM222.525162,-278.315155C224.249542,-279.196259,224.779236,-280.071167,224.779236,-282.038239C224.779236,-283.325562,224.648514,-283.855591,224.163147,-284.536072C221.801376,-287.847321,216.445908,-286.201904,216.445908,-282.165009C216.445908,-278.731323,219.524353,-276.781799,222.525162,-278.315155zM219.238678,-280.953369C217.838531,-282.952393,220.613403,-284.935699,222.069366,-282.976563C222.949341,-281.79248,222.114914,-280.365417,220.542542,-280.365417C219.920639,-280.365417,219.525803,-280.543457,219.238678,-280.953369z"/>
    <path style="stroke:none;fill:#ff0000;fill-rule:evenodd" d="M254.205215,-273.582306C250.220001,-275.262756,248.255066,-278.405975,248.511993,-282.689423C248.718567,-286.133575,250.513245,-288.778503,253.705261,-290.343018C254.983582,-290.969543,255.531311,-291.077057,257.451202,-291.078278C259.329895,-291.079468,259.944489,-290.964996,261.186646,-290.382568C263.278015,-289.401947,264.712219,-288.002838,265.71582,-285.964203C266.475403,-284.421295,266.577301,-283.959625,266.57074,-282.090546C266.564667,-280.36557,266.433014,-279.687714,265.866913,-278.467224C264.283173,-275.052673,261.544525,-273.189484,257.876648,-273.031219C256.066223,-272.953094,255.493515,-273.039063,254.205215,-273.582306zM259.796234,-278.442657C262.439667,-280.400238,262.332458,-284.155945,259.587433,-285.759125C259.03537,-286.081543,258.204041,-286.287262,257.453186,-286.287262C252.96373,-286.287262,251.628448,-280.115784,255.705444,-278.209412C257.022858,-277.593414,258.785126,-277.693878,259.796234,-278.442657zM256.296936,-280.763794C255.588257,-281.472504,255.507126,-282.231903,256.060547,-282.976563C257.51651,-284.935699,260.291382,-282.952393,258.891235,-280.953369C258.4021,-280.255035,256.914429,-280.146332,256.296936,-280.763794z"/>
</svg>
