<svg width="59" height="68" viewBox="0 0 59 68" fill="none" xmlns="http://www.w3.org/2000/svg">
<g clip-path="url(#clip0_752_114)">
<path fill-rule="evenodd" clip-rule="evenodd" d="M57.9497 67.138C54.0803 63.1244 50.1539 62.7603 41.8601 65.646C38.7001 66.7455 38.2232 66.8722 35.9646 67.2126C33.8018 67.5385 28.5158 67.4084 25.569 66.9568C23.2609 66.603 22.2835 66.4238 19.7176 65.8839C19.0965 65.7532 15.8648 64.9101 15.3602 64.7471C15.1548 64.6807 14.4265 64.4495 13.7417 64.2332C11.4855 63.5205 10.1571 63.0582 9.25979 62.6734C9.05437 62.5853 8.38207 62.2975 7.76581 62.0338C7.14955 61.7702 6.26542 61.3251 5.80108 61.0447C5.09201 60.6165 4.90991 60.4333 4.66369 59.9002C4.19045 58.8757 4.04939 57.7093 4.13484 55.5281C4.22543 53.2159 4.43807 51.2511 4.83282 49.0779C4.97333 48.3044 5.16086 47.2599 5.32551 46.3339C5.51109 45.29 6.34981 41.7442 6.72804 40.4043C7.57336 37.4099 9.37047 32.523 11.0892 28.545C11.4339 27.747 11.7892 26.9238 11.8786 26.7156C11.9681 26.5075 12.3259 25.72 12.6736 24.9656C13.0214 24.2113 13.306 23.5675 13.306 23.5348C13.306 23.4606 15.2311 19.5665 15.8315 18.4262C16.0765 17.961 16.5048 17.2403 16.7834 16.8246C17.062 16.4089 17.2899 16.0403 17.2899 16.0055C17.2899 15.9707 17.57 15.4992 17.9124 14.9577C18.2548 14.4162 18.5349 13.911 18.5349 13.835C18.5349 13.707 17.5881 13.5617 15.254 13.3313L14.4008 13.2471L14.4759 12.4432C14.5172 12.001 14.586 11.2657 14.6288 10.8091C14.6793 10.27 14.768 9.95518 14.8818 9.91093C14.9781 9.87345 15.5734 9.90456 16.2046 9.98005C16.8357 10.0555 18.0935 10.1867 18.9996 10.2715L20.647 10.4257L20.9604 10.1273C21.1328 9.96321 21.2739 9.77805 21.2739 9.71584C21.2739 9.4994 23.2651 6.73393 24.0074 5.91944C24.8743 4.96832 26.3862 4.50151 28.3104 4.59089C29.1965 4.63205 29.4231 4.69803 30.3566 5.18664C31.4075 5.73665 32.1616 5.98636 33.2419 6.14207C33.8274 6.22644 34.868 6.78691 35.6463 7.43706C36.2626 7.95182 37.7076 9.84986 37.7076 10.1446C37.7076 10.5121 37.4911 10.8805 36.9244 11.477C36.5655 11.855 36.4706 12.0251 36.5966 12.0651C36.6941 12.0961 37.4741 12.1871 38.3301 12.2674C39.186 12.3477 40.0124 12.439 40.1664 12.4703C40.4949 12.537 40.4991 12.6149 40.278 14.5409C40.1018 16.0753 40.3734 15.9334 38.0811 15.6894C37.2936 15.6056 36.2284 15.5044 35.7139 15.4645L34.7785 15.3921L34.5956 15.8643C34.4951 16.124 34.151 16.575 33.831 16.8666C33.0641 17.5654 32.2835 17.7615 30.6913 17.6555C29.5638 17.5805 29.4938 17.5914 28.8513 17.9435C28.1189 18.3448 26.7954 18.8427 25.8064 19.0887C24.9401 19.3043 24.8386 19.4035 24.5217 20.3444C24.3697 20.7954 24.1963 21.278 24.1361 21.4168C23.7773 22.245 22.4051 26.6301 21.9647 28.3557C21.2377 31.2044 21.0461 32.5296 20.9614 35.2947C20.9231 36.5437 20.8392 38.1333 20.7749 38.8272C20.5518 41.2358 20.4809 44.7306 20.6413 45.4085C20.911 46.5477 22.1209 47.4694 23.3466 47.4694C23.9959 47.4694 24.26 47.3457 24.9086 46.7375C26.4971 45.2481 28.5621 44.2248 31.3582 43.5416C32.2892 43.3141 36.3763 43.3119 37.4586 43.5384C38.9856 43.8578 40.522 44.59 41.5172 45.4726C42.277 46.1463 42.3416 46.1816 42.2281 45.8608C42.0937 45.4808 41.1322 44.4028 40.4007 43.812C40.0151 43.5005 39.6995 43.2114 39.6995 43.1696C39.6995 43.0108 44.1382 40.0975 44.98 39.7038C46.2819 39.095 47.1472 38.9154 49.2236 38.8232C51.426 38.7253 52.9997 38.8738 55.0751 39.3753C56.5042 39.7207 57.0313 39.8134 57.9708 39.8847L58.999 39.9627L59 53.966C59.0006 61.6678 58.9581 67.9831 58.9055 67.9999C58.853 68.0167 58.4229 67.6289 57.9497 67.138Z" fill="black"/>
<path fill-rule="evenodd" clip-rule="evenodd" d="M41.6828 25.4227C40.5959 24.8647 40.1 23.776 40.3195 22.4302C40.3765 22.0811 40.4866 21.1142 40.5642 20.2815C40.6418 19.4489 40.7608 18.1715 40.8286 17.4429C40.8964 16.7143 41.0053 15.664 41.0706 15.1089C41.136 14.5538 41.304 12.9357 41.444 11.5132C41.5839 10.0908 41.7529 8.4405 41.8195 7.84599C41.886 7.25148 41.9404 6.52001 41.9404 6.22051C41.9404 5.3591 42.2023 4.68241 42.7513 4.12526C43.4402 3.42603 44.1322 3.23415 45.2521 3.43178C46.277 3.61264 46.6918 3.82083 47.0885 4.35339C47.6569 5.11634 47.7106 5.57248 47.4863 7.73046C47.3746 8.80484 47.2318 10.2516 47.1689 10.9455C47.1061 11.6394 46.9924 12.7749 46.9162 13.4688C46.8401 14.1627 46.7278 15.2697 46.6668 15.9289C46.6058 16.5881 46.5025 17.6384 46.4372 18.2629C46.3719 18.8874 46.2263 20.3352 46.1136 21.4801C45.8919 23.7329 45.7766 24.2523 45.376 24.8042C44.6374 25.8216 42.9954 26.0966 41.6828 25.4227Z" fill="black"/>
<path fill-rule="evenodd" clip-rule="evenodd" d="M48.0333 23.8612C47.5407 23.7236 47.0345 23.3273 46.8152 22.9078C46.6099 22.515 46.6358 21.4785 46.919 18.7545C47.0554 17.4433 47.226 15.8028 47.2982 15.1089C47.5566 12.6253 47.6519 11.6807 47.7947 10.1886C48.0471 7.55161 48.0993 7.34721 48.657 6.81373C49.1001 6.38975 49.2198 6.34065 49.8099 6.34082C51.1375 6.34122 51.9001 7.08714 51.9001 8.38525C51.9001 8.79539 51.8488 9.51085 51.7861 9.97517C51.7234 10.4395 51.6121 11.4439 51.5388 12.2072C51.2234 15.4883 51.1256 16.4579 50.9594 17.9476C50.8626 18.8149 50.726 20.195 50.6559 21.0143C50.5143 22.6673 50.2846 23.3008 49.7021 23.6449C49.225 23.9266 48.5708 24.0114 48.0333 23.8612Z" fill="black"/>
<path fill-rule="evenodd" clip-rule="evenodd" d="M9.22617 22.2515C8.61402 22.1421 8.1871 21.8511 7.64854 21.1759C7.2849 20.7201 7.26847 20.6487 7.2818 19.5843C7.2895 18.9714 7.35786 17.9408 7.43372 17.2941C7.58141 16.0354 7.73571 14.5589 7.95212 12.3335C8.02631 11.5702 8.13945 10.4347 8.2035 9.81024C8.26756 9.18573 8.3765 8.10704 8.44564 7.41315C9.03019 1.54387 9.04064 1.48418 9.59477 0.844598C10.1842 0.164266 10.6203 -0.0155814 11.6401 0.00103171C13.009 0.023328 13.8139 0.458614 14.3141 1.44695C14.581 1.97425 14.6188 2.87823 14.4355 4.34458C14.3719 4.85268 14.2579 5.92128 14.1821 6.71926C14.0497 8.11201 13.968 8.93947 13.6897 11.7027C13.3751 14.8267 13.2875 15.682 13.1794 16.6861C13.1158 17.2759 12.9995 18.3915 12.9208 19.1651C12.76 20.7456 12.5373 21.2831 11.7911 21.892C11.4131 22.2005 11.1987 22.2717 10.5461 22.3056C10.1125 22.3281 9.51857 22.3038 9.22617 22.2515Z" fill="black"/>
<path fill-rule="evenodd" clip-rule="evenodd" d="M3.9691 19.1773C3.57732 18.9751 3.34434 18.7406 3.15965 18.3624C2.91188 17.8551 2.907 17.7622 3.04987 16.2807C3.60058 10.5699 3.80452 8.52145 3.9704 7.03412C4.03232 6.47901 4.15101 5.35142 4.23422 4.52837C4.403 2.85839 4.58743 2.43994 5.33794 2.02422C6.23236 1.52878 7.5665 1.92941 8.0269 2.83168C8.25014 3.26915 8.26022 3.74753 8.08354 5.52017C8.01441 6.21407 7.90287 7.34953 7.83575 8.04342C7.76859 8.73731 7.65281 9.87278 7.57847 10.5667C7.50411 11.2606 7.39614 12.3393 7.33852 12.9638C6.99453 16.6925 6.78439 18.2119 6.56132 18.5837C6.30069 19.018 5.47096 19.4542 4.89747 19.4584C4.68943 19.4599 4.27167 19.3334 3.9691 19.1773Z" fill="black"/>
<path fill-rule="evenodd" clip-rule="evenodd" d="M52.3796 18.0116C51.7324 17.6493 51.4854 16.2069 51.8285 14.7938C52.2114 13.217 52.4793 12.9014 53.4346 12.9014C54.1519 12.9014 54.4378 13.103 54.7398 13.822C54.9792 14.3919 54.9244 16.021 54.6391 16.8142C54.2434 17.9146 54.0311 18.1322 53.3192 18.1667C52.9642 18.1839 52.5716 18.1191 52.3796 18.0116Z" fill="black"/>
<path fill-rule="evenodd" clip-rule="evenodd" d="M0.98362 12.7722C0.397722 12.6325 0.142717 12.2712 0.0395428 11.4343C-0.132194 10.0414 0.262924 8.21078 0.829405 7.77467C1.15929 7.52073 2.39445 7.55403 2.62605 7.82311C3.04423 8.30893 3.13672 8.67917 3.11954 9.79908C3.10013 11.0656 2.86112 11.9592 2.39 12.5266C2.06224 12.9213 1.80083 12.967 0.98362 12.7722Z" fill="black"/>
</g>
<defs>
<clipPath id="clip0_752_114">
<rect width="59" height="68" fill="white"/>
</clipPath>
</defs>
</svg>
