<?xml version="1.0" encoding="UTF-8"?>
<svg xmlns="http://www.w3.org/2000/svg" xmlns:xlink="http://www.w3.org/1999/xlink" width="147.830mm" height="109.715mm" viewBox="-659.133240 -10.429275 147.829651 109.715347">
    <path style="stroke:none;fill:#ff0000;fill-rule:evenodd" d="M-641.432007,87.228149L-641.432007,75.170227L-647.394836,75.170227C-650.713196,75.170227,-653.763672,75.093231,-654.27301,74.996643C-656.243896,74.622864,-657.841614,73.395096,-658.677368,71.612106C-659.060364,70.795044,-659.133911,70.403198,-659.13324,69.184021C-659.132568,67.945053,-659.059814,67.572662,-658.640747,66.66394C-658.07251,65.43161,-656.976135,64.322693,-655.713379,63.702999L-654.858215,63.283337L-594.910645,63.283337L-534.963135,63.283337L-534.10791,63.703602C-532.953247,64.271057,-531.704285,65.557938,-531.151978,66.749222C-530.774231,67.56395,-530.696289,67.976654,-530.6922,69.184021C-530.688049,70.408585,-530.759277,70.791443,-531.143921,71.612106C-531.979736,73.395096,-533.577454,74.622864,-535.548279,74.996643C-536.057678,75.093231,-539.108093,75.170227,-542.426453,75.170227L-548.389282,75.170227L-548.389282,87.228149L-548.389282,99.286072L-549.586548,99.286072L-550.783813,99.286072L-550.783813,87.228149L-550.783813,75.170227L-594.996155,75.170227L-639.208557,75.170227L-639.208557,87.228149L-639.208557,99.286072L-640.320251,99.286072L-641.432007,99.286072L-641.432007,87.228149z"/>
    <path style="stroke:none;fill:#ff0000;fill-rule:evenodd" d="M-518.255493,97.473999C-519.213318,96.996704,-520.14856,95.989685,-520.635376,94.911499C-520.915833,94.290298,-520.944641,93.105545,-521.023804,78.932983C-521.10907,63.6693,-521.110352,63.62344,-521.477539,62.941265C-521.863586,62.223904,-522.306274,61.771427,-523.161743,61.219746C-523.630859,60.917225,-524.107544,60.881519,-528.720337,60.803341L-533.765869,60.717823L-533.810547,53.833691C-533.845947,48.382847,-533.810364,46.950016,-533.639526,46.951733C-533.520874,46.952946,-529.800415,47.256931,-525.371826,47.62727C-516.685852,48.353649,-516.318604,48.41888,-514.633667,49.534939C-512.992065,50.622295,-511.748901,52.617382,-511.431824,54.673527C-511.328064,55.34618,-511.282776,63.062542,-511.312469,74.999191L-511.360352,94.240555L-511.743073,95.017075C-512.23175,96.008621,-513.389526,97.190826,-514.267944,97.595291C-515.335815,98.086975,-517.135254,98.032242,-518.255493,97.473999z"/>
    <path style="stroke:none;fill:#ff0000;fill-rule:evenodd" d="M-624.502075,60.601749C-627.087341,60.366062,-629.279175,59.296818,-631.256226,57.306828C-633.36731,55.181927,-634.356201,52.983128,-634.529846,50.028172C-634.719727,46.796124,-633.550415,43.69791,-631.284668,41.429798C-629.120972,39.263882,-626.866699,38.247562,-623.90155,38.101185C-620.391235,37.927891,-617.549622,39.025845,-615.140259,41.486385C-613.033569,43.637852,-611.979858,46.176456,-611.949768,49.173C-611.929199,51.216488,-612.156494,52.323788,-612.950317,54.047482C-615.034851,58.57394,-619.424622,61.064617,-624.502075,60.601749z"/>
    <path style="stroke:none;fill:#ff0000;fill-rule:evenodd" d="M-608.580322,60.161961C-609.03949,58.440655,-609.716919,51.126667,-609.540833,49.791447C-609.489807,49.40427,-609.248596,43.045696,-609.004944,35.661289C-608.76123,28.276882,-608.548828,22.221394,-608.532959,22.204655C-608.517029,22.18792,-607.966125,22.297039,-607.308716,22.447155C-605.716187,22.810772,-602.234741,22.810772,-600.642212,22.447155C-599.984802,22.297039,-599.431824,22.189339,-599.41333,22.207817C-599.394836,22.226299,-599.226807,26.134136,-599.039856,30.891911C-598.669739,40.31255,-598.666687,40.335049,-597.627686,41.211048C-596.504395,42.158131,-596.179016,42.21159,-593.571045,41.877476C-590.215454,41.447598,-582.183838,41.445667,-579.089966,41.873997C-576.154175,42.280445,-572.128662,43.086826,-570.110657,43.67271L-568.48584,44.144444L-568.445068,52.473888L-568.404297,60.803341L-588.406738,60.803341L-608.40918,60.803341L-608.580322,60.161961z"/>
    <path style="stroke:none;fill:#ff0000;fill-rule:evenodd" d="M-566.005859,52.337139C-566.005859,44.135334,-565.9953,43.860386,-565.668152,43.533215C-565.482422,43.347469,-565.125366,43.144032,-564.874695,43.081127C-564.624084,43.018223,-558.291748,43.437328,-550.802795,44.012463L-537.186523,45.058163L-536.716187,45.578976L-536.24585,46.099781L-536.24585,53.45155L-536.24585,60.803341L-551.125854,60.803341L-566.005859,60.803341L-566.005859,52.337139z"/>
    <path style="stroke:none;fill:#ff0000;fill-rule:evenodd" d="M-605.768372,20.250011C-611.852356,19.609612,-616.925598,15.308472,-618.801758,9.200275C-619.221436,7.833897,-619.263428,7.448235,-619.263428,4.960617C-619.263428,2.461376,-619.222595,2.090584,-618.792603,0.684757C-617.124146,-4.769634,-613.042603,-8.687382,-607.618774,-10.040646C-605.524841,-10.56308,-602.4552,-10.558331,-600.298218,-10.029318C-595.150269,-8.766743,-591.009766,-4.921841,-589.286926,0.195877C-588.366516,2.929951,-588.351013,6.734447,-589.249084,9.493027C-591.213562,15.527271,-596.109558,19.563625,-602.302063,20.254135C-603.215027,20.355934,-604.061218,20.428993,-604.182495,20.416477C-604.303833,20.403965,-605.017456,20.32906,-605.768372,20.250011zM-600.582458,15.084332C-597.265869,13.930927,-594.748352,11.351559,-593.706299,8.039234C-593.140869,6.241978,-593.1698,3.562935,-593.77478,1.697552C-594.68512,-1.109547,-596.632202,-3.351063,-599.26062,-4.617973C-601.684937,-5.786491,-604.079407,-6.038399,-606.610107,-5.391163C-608.577881,-4.887886,-609.850037,-4.142563,-611.423462,-2.571144C-613.656067,-0.341419,-614.63739,1.966919,-614.625366,4.960617C-614.613281,7.979321,-613.63739,10.271847,-611.419678,12.491589C-609.886353,14.026325,-608.244934,14.966148,-606.341248,15.399376C-604.711243,15.770325,-602.152588,15.630352,-600.582458,15.084332zM-604.830627,13.320988C-607.617126,12.843586,-609.945007,11.306171,-611.242432,9.086452C-613.108398,5.894093,-612.546265,1.681694,-609.901367,-0.963207C-607.0672,-3.797382,-602.731201,-4.257221,-599.443054,-2.072334C-595.744629,0.385155,-594.561462,4.910088,-596.57666,8.889595C-597.107605,9.938053,-598.815613,11.661705,-599.940491,12.284264C-601.315552,13.045269,-603.605896,13.530827,-604.830627,13.320988zM-602.521667,8.318764C-599.706787,7.036758,-599.566223,3.087921,-602.287231,1.731987C-604.822937,0.46838,-607.591858,2.14381,-607.591553,4.941601C-607.591431,6.034519,-607.399231,6.54628,-606.68219,7.362949C-605.618164,8.574829,-603.933655,8.961819,-602.521667,8.318764zM-604.42749,6.243217C-605.227966,5.923676,-605.593994,4.79155,-605.105103,4.147446C-604.296936,3.082741,-602.626465,3.636417,-602.612671,4.97356C-602.603699,5.838848,-603.634338,6.559864,-604.42749,6.243217z"/>
</svg>
