<svg width="42" height="84" viewBox="0 0 42 84" fill="none" xmlns="http://www.w3.org/2000/svg">
<g clip-path="url(#clip0_752_131)">
<path fill-rule="evenodd" clip-rule="evenodd" d="M2.67742 83.7927C1.34778 83.3814 0 81.5208 0 80.0965C0 79.8182 1.01888 75.2815 2.26418 70.0149C4.75159 59.4953 4.79615 59.365 6.19781 58.5145C6.74943 58.1797 7.54633 57.9481 9.20548 57.6401C10.4469 57.4097 11.5945 57.1827 11.7555 57.1357C12.0297 57.0557 12.0484 56.493 12.0484 48.3311V39.6119L11.0638 37.7899C10.5222 36.7877 8.78354 33.4275 7.20005 30.3227L4.32095 24.6775L4.77072 18.0048C5.01808 14.3348 5.25039 11.2345 5.28696 11.1152C5.33655 10.9534 5.48517 10.9903 5.87151 11.2603C6.62244 11.7851 8.24551 12.2354 9.38587 12.2354H10.375L10.379 12.7692C10.3811 13.0628 10.2194 15.6385 10.0196 18.493L9.65627 23.6829L12.4915 29.1684L15.3267 34.6539H21.0086H26.6905L29.518 29.152L32.3454 23.65L31.9822 18.3122C31.7823 15.3765 31.6207 12.8082 31.6229 12.605C31.6267 12.2645 31.7037 12.2354 32.6007 12.2354C33.6894 12.2354 35.0753 11.8841 36.0177 11.3692C36.3619 11.1812 36.6711 11.059 36.705 11.0976C36.7389 11.1363 36.9749 14.2205 37.2295 17.9514L37.6923 24.7349L33.968 31.9937C31.9197 35.9861 30.1784 39.3228 30.0987 39.4086C30.0189 39.4944 29.9536 43.5025 29.9536 48.3154V57.0662L30.3301 57.1456C30.5372 57.1892 31.6856 57.4134 32.882 57.6439C34.4331 57.9426 35.2723 58.1929 35.806 58.5163C37.2142 59.3694 37.2594 59.501 39.7404 69.9671C40.9821 75.2052 41.9989 79.7549 42 80.0775C42.0036 81.1388 41.5291 82.1447 40.6653 82.907C39.4832 83.95 38.2329 84.2377 36.7502 83.8077C35.9204 83.5671 34.4211 82.1716 34.2264 81.4588C34.1529 81.1894 33.2514 77.4233 32.2232 73.0895L30.3538 65.21L25.6455 64.3028C21.8274 63.5671 20.8167 63.4239 20.2997 63.5451C19.9491 63.6273 17.8625 64.0356 15.6628 64.4523L11.6632 65.2099L9.86226 72.8431C8.87171 77.0414 7.93949 80.8595 7.79065 81.3279C7.58922 81.9617 7.31171 82.3632 6.70548 82.8982C5.51938 83.9448 4.15124 84.2487 2.67742 83.7927Z" fill="black"/>
<path fill-rule="evenodd" clip-rule="evenodd" d="M8.73225 83.3918C8.78164 82.9705 8.84433 82.9368 9.66374 82.8905L10.5423 82.8408V83.3421C10.5423 83.841 10.5377 83.8434 9.61079 83.8434C8.69335 83.8434 8.6801 83.8366 8.73225 83.3918Z" fill="black"/>
<path fill-rule="evenodd" clip-rule="evenodd" d="M31.4595 83.3511C31.4595 82.8634 31.4688 82.8584 32.3798 82.8584C33.2909 82.8584 33.3002 82.8634 33.3002 83.3511C33.3002 83.8389 33.2909 83.8438 32.3798 83.8438C31.4688 83.8438 31.4595 83.8389 31.4595 83.3511Z" fill="black"/>
<path fill-rule="evenodd" clip-rule="evenodd" d="M8.591 82.1299C8.64177 82 8.76277 81.5935 8.85991 81.2266C8.95704 80.8596 9.11473 80.2637 9.2103 79.9024L9.38409 79.2454H14.3978H19.4115V73.8256V68.4057H15.67H11.9284L12.203 67.2188L12.4775 66.0318L16.7589 65.2205L21.0404 64.4092L25.2771 65.2167L29.5139 66.0243L29.7055 66.7634C29.8109 67.1698 29.949 67.7057 30.0124 67.9541L30.1276 68.4057H26.357H22.5864L22.6305 73.7845L22.6746 79.1633L27.6784 79.2454L32.6821 79.3276L32.9765 80.4772C33.1385 81.1095 33.3241 81.7932 33.389 81.9964L33.507 82.366H21.0028C10.1986 82.366 8.51124 82.3339 8.591 82.1299Z" fill="black"/>
<path fill-rule="evenodd" clip-rule="evenodd" d="M19.746 33.0782C17.5555 32.7184 15.4069 31.1326 14.4268 29.1524C12.2344 24.7234 14.9264 19.631 19.8948 18.8085C24.6716 18.0177 29.066 22.3077 28.2946 27.0088C27.6359 31.0231 23.8027 33.7446 19.746 33.0782Z" fill="black"/>
<path fill-rule="evenodd" clip-rule="evenodd" d="M7.59677 11.027C6.73653 10.7507 5.53678 9.9486 4.92922 9.24352C3.07767 7.09477 3.17614 3.8105 5.15404 1.74407C6.33115 0.514268 7.57465 0 9.37118 0C10.5644 0 10.9478 0.0709334 11.7508 0.440341C12.883 0.961164 14.0262 2.05982 14.5752 3.15474C14.909 3.82037 14.9704 4.19497 14.9734 5.5841C14.9765 7.00038 14.9204 7.33953 14.5658 8.04768C14.0369 9.10397 12.86 10.2521 11.7976 10.7482C10.7736 11.2264 8.6555 11.367 7.59677 11.027ZM10.5391 7.92449C11.6299 7.37748 11.9649 6.83432 11.9649 5.61313C11.9649 4.81393 11.8822 4.48488 11.5752 4.06242C10.0813 2.00673 6.69376 3.02824 6.69376 5.53442C6.69376 7.66612 8.641 8.87643 10.5391 7.92449ZM8.4603 6.28663C7.57465 5.0456 9.32987 3.81433 10.2508 5.0306C10.8074 5.7657 10.2796 6.65165 9.28505 6.65165C8.89167 6.65165 8.64192 6.54112 8.4603 6.28663Z" fill="black"/>
<path fill-rule="evenodd" clip-rule="evenodd" d="M30.5777 10.8628C28.0569 9.81957 26.814 7.8682 26.9765 5.20895C27.1072 3.07075 28.2424 1.42873 30.2615 0.457446C31.0701 0.0684871 31.4165 0.00174025 32.6309 0.000982234C33.8193 0.000243458 34.208 0.0713095 34.9937 0.432892C36.3166 1.04168 37.2238 1.91028 37.8586 3.1759C38.3391 4.13377 38.4035 4.42038 38.3994 5.58074C38.3956 6.65164 38.3123 7.07247 37.9542 7.83017C36.9524 9.94999 35.2201 11.1067 32.9 11.205C31.7549 11.2535 31.3926 11.2001 30.5777 10.8628ZM34.1143 7.84542C35.7863 6.63012 35.7185 4.2985 33.9822 3.30322C33.633 3.10305 33.1071 2.97534 32.6322 2.97534C29.7924 2.97534 28.9478 6.80672 31.5267 7.99023C32.36 8.37265 33.4747 8.31028 34.1143 7.84542ZM31.9008 6.40442C31.4525 5.96444 31.4012 5.49299 31.7513 5.03069C32.6722 3.81442 34.4275 5.04569 33.5418 6.28673C33.2324 6.72027 32.2914 6.78775 31.9008 6.40442Z" fill="black"/>
</g>
<defs>
<clipPath id="clip0_752_131">
<rect width="42" height="84" fill="white"/>
</clipPath>
</defs>
</svg>
