<?xml version="1.0" encoding="UTF-8"?>
<svg xmlns="http://www.w3.org/2000/svg" xmlns:xlink="http://www.w3.org/1999/xlink" width="125.371mm" height="142.589mm" viewBox="-969.547180 -185.106171 125.370911 142.589203">
    <path style="stroke:none;fill:#ff0000;fill-rule:evenodd" d="M-846.408203,-44.324173C-854.630371,-52.740387,-862.973755,-53.503906,-880.597412,-47.452866C-887.312256,-45.147324,-888.325623,-44.881607,-893.125,-44.167862C-897.720825,-43.484406,-908.953247,-43.757172,-915.214966,-44.7043C-920.119568,-45.446167,-922.196594,-45.82196,-927.648804,-46.954041C-928.96875,-47.228104,-935.835754,-48.995972,-936.908081,-49.337784C-937.344604,-49.476929,-938.892212,-49.961823,-940.347229,-50.415344C-945.141602,-51.909744,-947.964417,-52.879166,-949.871033,-53.686081C-950.307556,-53.870819,-951.736145,-54.474319,-953.045654,-55.027161C-954.355164,-55.580017,-956.233887,-56.513382,-957.220581,-57.101288C-958.727295,-57.999115,-959.114258,-58.383331,-959.637451,-59.501129C-960.643066,-61.649582,-960.94281,-64.095306,-960.76123,-68.669083C-960.568726,-73.517578,-960.116882,-77.637527,-959.278076,-82.194412C-958.979492,-83.816368,-958.580994,-86.006638,-958.23114,-87.94838C-957.836792,-90.13739,-956.054565,-97.572609,-955.250854,-100.382248C-953.45459,-106.661156,-949.635864,-116.908562,-945.983765,-125.249969C-945.251221,-126.923256,-944.496216,-128.649445,-944.306152,-129.085953C-944.116028,-129.522461,-943.355835,-131.173737,-942.616821,-132.755478C-941.877808,-134.337219,-941.273193,-135.687347,-941.273193,-135.755768C-941.273193,-135.911499,-937.182373,-144.077026,-935.906555,-146.468018C-935.385986,-147.443512,-934.47583,-148.954834,-933.88385,-149.826523C-933.29187,-150.698212,-932.807556,-151.4711,-932.807556,-151.544037C-932.807556,-151.616989,-932.212341,-152.605667,-931.484863,-153.741104C-930.757324,-154.876541,-930.162109,-155.935913,-930.162109,-156.095276C-930.162048,-156.363708,-932.173889,-156.668488,-937.133728,-157.151474L-938.946655,-157.328018L-938.78717,-159.01387C-938.699463,-159.941071,-938.553284,-161.482971,-938.462341,-162.440277C-938.354919,-163.57077,-938.166504,-164.230927,-937.924683,-164.323715C-937.71991,-164.402298,-936.455017,-164.337067,-935.113831,-164.178772C-933.772644,-164.020477,-931.099976,-163.745468,-929.174622,-163.567627L-925.67395,-163.244278L-925.007935,-163.869965C-924.641663,-164.214081,-924.341919,-164.602356,-924.341919,-164.732803C-924.341919,-165.186661,-920.110657,-170.985565,-918.533264,-172.693466C-916.691284,-174.687881,-913.478577,-175.666733,-909.389771,-175.479309C-907.506897,-175.39299,-907.025391,-175.254654,-905.041626,-174.230072C-902.808594,-173.076752,-901.206177,-172.553146,-898.910522,-172.226639C-897.666504,-172.049713,-895.455322,-170.874466,-893.801392,-169.511169C-892.491882,-168.431763,-889.421326,-164.451782,-889.421326,-163.833832C-889.421326,-163.063156,-889.881409,-162.290604,-891.085449,-161.039719C-891.848267,-160.247192,-892.049744,-159.890533,-891.782043,-159.806595C-891.574951,-159.741638,-889.917358,-159.550735,-888.098572,-159.38237C-886.279785,-159.213989,-884.523804,-159.022583,-884.196472,-158.957001C-883.498535,-158.8172,-883.489624,-158.653656,-883.959412,-154.615051C-884.333679,-151.397552,-883.756592,-151.695236,-888.627686,-152.206879C-890.300964,-152.382645,-892.564453,-152.594788,-893.657715,-152.678345L-895.645447,-152.830231L-896.033997,-151.840073C-896.247681,-151.295486,-896.97876,-150.349747,-897.658752,-149.738434C-899.288513,-148.273102,-900.947083,-147.861847,-904.330444,-148.084091C-906.72644,-148.241486,-906.875122,-148.218521,-908.240295,-147.480255C-909.79657,-146.638641,-912.609009,-145.594772,-914.710571,-145.078751C-916.551453,-144.626755,-916.76709,-144.418762,-917.440552,-142.44574C-917.763367,-141.499969,-918.132019,-140.488068,-918.259766,-140.197052C-919.022217,-138.460388,-921.93811,-129.265381,-922.873901,-125.646797C-924.418701,-119.673531,-924.825867,-116.894577,-925.00592,-111.096535C-925.087219,-108.477486,-925.265503,-105.14415,-925.4021,-103.689125C-925.876282,-98.638596,-926.026978,-91.31044,-925.685974,-89.888809C-925.112915,-87.500008,-922.542114,-85.567429,-919.937561,-85.567429C-918.557739,-85.567429,-917.996643,-85.826843,-916.618408,-87.10202C-913.242798,-90.225243,-908.854797,-92.370903,-902.913391,-93.803551C-900.935059,-94.280571,-892.250244,-94.28511,-889.950439,-93.810318C-886.705688,-93.140457,-883.440796,-91.605095,-881.32605,-89.754539C-879.711548,-88.341667,-879.574341,-88.267761,-879.815552,-88.940445C-880.101135,-89.73719,-882.144287,-91.997681,-883.698547,-93.236565C-884.518005,-93.889778,-885.188538,-94.495895,-885.188538,-94.583511C-885.188538,-94.916519,-875.756592,-101.02552,-873.967896,-101.85099C-871.201477,-103.127731,-869.362671,-103.504295,-864.950439,-103.69767C-860.270508,-103.902786,-856.926514,-103.591377,-852.516541,-102.539795C-849.479736,-101.815651,-848.359619,-101.621216,-846.363403,-101.471764L-844.178467,-101.308174L-844.17627,-71.944611C-844.175049,-55.794678,-844.265381,-42.552231,-844.377075,-42.516968C-844.488708,-42.481689,-845.40271,-43.294952,-846.408203,-44.324173z"/>
    <path style="stroke:none;fill:#ff0000;fill-rule:evenodd" d="M-880.974121,-131.797592C-883.283569,-132.96756,-884.337402,-135.250458,-883.870911,-138.07251C-883.749878,-138.804504,-883.51593,-140.831985,-883.351013,-142.578018C-883.186096,-144.324051,-882.933289,-147.002625,-882.789185,-148.530396C-882.645142,-150.058167,-882.413696,-152.260559,-882.274902,-153.424576C-882.136047,-154.588593,-881.779053,-157.981445,-881.481567,-160.964264C-881.184143,-163.947052,-880.825073,-167.407501,-880.683655,-168.654129C-880.542297,-169.900757,-880.426636,-171.43457,-880.426636,-172.062592C-880.426636,-173.868896,-879.870117,-175.287842,-878.703613,-176.456131C-877.239624,-177.922348,-875.769287,-178.324692,-873.389526,-177.910278C-871.211731,-177.531036,-870.330261,-177.094498,-869.487244,-175.977768C-868.279541,-174.37793,-868.165405,-173.421448,-868.64209,-168.896393C-868.879456,-166.643509,-869.182861,-163.609756,-869.316406,-162.154724C-869.449829,-160.699707,-869.691528,-158.318756,-869.853333,-156.863724C-870.015198,-155.408707,-870.253662,-153.08728,-870.383301,-151.705002C-870.513,-150.322723,-870.732544,-148.120346,-870.871338,-146.810822C-871.01001,-145.501297,-871.319458,-142.465576,-871.55896,-140.064789C-872.03009,-135.34082,-872.274963,-134.25177,-873.126343,-133.094482C-874.695801,-130.961121,-878.184814,-130.384521,-880.974121,-131.797592z"/>
    <path style="stroke:none;fill:#ff0000;fill-rule:evenodd" d="M-867.479309,-135.071899C-868.525879,-135.360519,-869.601501,-136.191376,-870.067566,-137.071198C-870.503906,-137.894836,-870.448853,-140.068176,-869.846924,-145.780121C-869.55719,-148.529541,-869.194641,-151.969543,-869.04126,-153.424576C-868.492188,-158.632385,-868.289673,-160.613129,-867.986206,-163.742035C-867.44989,-169.271515,-867.338928,-169.700104,-866.153992,-170.818756C-865.21228,-171.707809,-864.957886,-171.810776,-863.704041,-171.81041C-860.883057,-171.80957,-859.262573,-170.245453,-859.262573,-167.523438C-859.262573,-166.663422,-859.371582,-165.163177,-859.504761,-164.189545C-859.637939,-163.215897,-859.874451,-161.109756,-860.030334,-159.509232C-860.700378,-152.629089,-860.908325,-150.595856,-861.261475,-147.472198C-861.467102,-145.653412,-861.757324,-142.759628,-861.906372,-141.041565C-862.207214,-137.575317,-862.695251,-136.24707,-863.933167,-135.525574C-864.946838,-134.934784,-866.337158,-134.756912,-867.479309,-135.071899z"/>
    <path style="stroke:none;fill:#ff0000;fill-rule:evenodd" d="M-949.942566,-138.447525C-951.243347,-138.676941,-952.150513,-139.287262,-953.294922,-140.702957C-954.067627,-141.658859,-954.102539,-141.808441,-954.074219,-144.040497C-954.057861,-145.325714,-953.912598,-147.486725,-953.751404,-148.842712C-953.437561,-151.482224,-953.10968,-154.578125,-952.649841,-159.244675C-952.492188,-160.845215,-952.25177,-163.226166,-952.115662,-164.53569C-951.979553,-165.845215,-951.748047,-168.107117,-951.601135,-169.562134C-950.359009,-181.869446,-950.336792,-181.994598,-949.159302,-183.335739C-947.906738,-184.762329,-946.980103,-185.13945,-944.813049,-185.104614C-941.904358,-185.057861,-940.193848,-184.145111,-939.131042,-182.072678C-938.563965,-180.966965,-938.483521,-179.071411,-938.873108,-175.996628C-939.008118,-174.931198,-939.250427,-172.690445,-939.41156,-171.017166C-939.69281,-168.09671,-939.866577,-166.361603,-940.457886,-160.567429C-941.126404,-154.016617,-941.312561,-152.223114,-941.542297,-150.117691C-941.677246,-148.88092,-941.924561,-146.541702,-942.091797,-144.919418C-942.433472,-141.605301,-942.906616,-140.478195,-944.492249,-139.201416C-945.295532,-138.554565,-945.751038,-138.405243,-947.137756,-138.334167C-948.059082,-138.286926,-949.321228,-138.337952,-949.942566,-138.447525z"/>
    <path style="stroke:none;fill:#ff0000;fill-rule:evenodd" d="M-961.113098,-144.892822C-961.945618,-145.316757,-962.440674,-145.808517,-962.83313,-146.601471C-963.359619,-147.665176,-963.369995,-147.860016,-963.066406,-150.966553C-961.896179,-162.94162,-961.46283,-167.237,-961.110352,-170.355789C-960.97876,-171.519806,-960.726563,-173.884247,-960.549744,-175.610107C-960.191101,-179.111877,-959.799194,-179.989319,-958.204407,-180.861053C-956.303833,-181.899933,-953.468872,-181.05986,-952.49054,-179.167877C-952.016174,-178.250565,-951.994751,-177.247437,-952.370178,-173.530396C-952.51709,-172.075363,-952.754089,-169.694412,-952.896729,-168.23938C-953.039429,-166.784363,-953.285461,-164.403412,-953.44342,-162.94838C-953.60144,-161.493362,-953.830872,-159.231445,-953.953308,-157.921936C-954.684265,-150.103119,-955.130798,-146.917007,-955.604797,-146.137527C-956.15863,-145.226868,-957.921753,-144.31221,-959.140381,-144.303406C-959.582458,-144.300201,-960.470154,-144.565445,-961.113098,-144.892822z"/>
    <path style="stroke:none;fill:#ff0000;fill-rule:evenodd" d="M-858.243774,-147.338486C-859.619019,-148.098206,-860.143921,-151.122894,-859.414795,-154.085953C-858.601135,-157.392395,-858.031921,-158.054199,-856.001831,-158.054199C-854.477783,-158.054199,-853.870239,-157.631348,-853.228394,-156.123764C-852.719666,-154.928802,-852.836121,-151.512695,-853.442322,-149.849411C-854.283264,-147.541931,-854.734436,-147.085724,-856.24707,-147.013367C-857.001465,-146.97728,-857.835815,-147.113129,-858.243774,-147.338486z"/>
    <path style="stroke:none;fill:#ff0000;fill-rule:evenodd" d="M-967.457275,-158.324646C-968.702271,-158.617477,-969.244141,-159.375214,-969.463379,-161.130005C-969.828308,-164.050751,-968.988708,-167.889435,-967.784973,-168.803925C-967.083984,-169.336411,-964.459351,-169.266586,-963.967224,-168.702347C-963.078613,-167.683624,-962.88208,-166.907272,-962.918579,-164.558929C-962.959839,-161.903198,-963.467712,-160.029404,-964.468811,-158.839645C-965.165283,-158.011932,-965.720764,-157.916214,-967.457275,-158.324646z"/>
</svg>
