<?xml version="1.0" encoding="UTF-8"?>
<svg xmlns="http://www.w3.org/2000/svg" xmlns:xlink="http://www.w3.org/1999/xlink" width="130.710mm" height="118.788mm" viewBox="-243.038773 148.964706 130.709503 118.788467">
    <path style="stroke:none;fill:#ff0000;fill-rule:evenodd" d="M-199.408325,266.969543C-200.12912,266.248718,-200.182251,266.055664,-200.190857,264.12561C-200.216614,258.347198,-201.679535,255.026978,-206.416702,249.995483C-209.497711,246.723038,-211.531876,242.609863,-212.25853,238.183029L-212.683945,235.591385L-214.567703,235.124557C-219.006775,234.024475,-222.60144,231.745483,-227.831589,226.715363C-229.928436,224.6987,-231.916199,222.994537,-232.248825,222.928329C-232.581436,222.862122,-233.714081,222.679504,-234.765808,222.522522C-238.573822,221.954102,-241.281616,220.459717,-242.423386,218.296463C-243.014481,217.176544,-243.038773,216.896744,-243.038773,211.20932C-243.038773,196.670334,-241.747742,193.374283,-231.972031,182.955505C-229.788208,180.628021,-228.03363,178.691544,-228.072968,178.652206C-228.112289,178.612869,-229.799271,179.517853,-231.821777,180.663254C-237.462662,183.857849,-237.685638,183.956207,-238.960678,183.8125C-242.35675,183.429718,-243.69696,179.41066,-241.187805,177.133743C-240.867508,176.843079,-237.733871,174.982254,-234.224182,172.998566L-227.842941,169.391861L-226.332977,166.384811C-223.875534,161.490906,-222.975464,161.037689,-215.986801,161.175156C-211.904755,161.255447,-211.311096,161.325653,-210.341766,161.842773C-208.649857,162.745361,-207.670074,164.014313,-206.960754,166.221664C-206.821732,166.654327,-205.956467,166.684631,-193.739853,166.684631L-180.667725,166.684631L-180.373047,165.514359C-180.201508,164.83313,-179.801453,164.126282,-179.41571,163.822845L-178.753052,163.301605L-178.753052,156.642395C-178.753052,152.557938,-178.647171,149.785339,-178.479187,149.471466C-178.168823,148.891525,-176.92804,148.774185,-176.425018,149.277222C-176.194702,149.507538,-176.107544,151.446686,-176.107544,156.341354L-176.107544,163.088013L-175.285431,163.936234C-174.833267,164.40274,-174.381958,165.18222,-174.282532,165.668396L-174.10173,166.552353L-161.308502,166.552353L-148.515289,166.552353L-148.157257,165.518158C-147.642517,164.031418,-146.643341,162.835953,-145.212341,161.994766L-143.964691,161.261353L-138.805969,161.261353C-133.992615,161.261353,-133.574188,161.30043,-132.556183,161.844986C-131.052094,162.649567,-130.174835,163.770004,-128.868195,166.555328L-127.749855,168.93924L-120.685242,172.904526C-115.995911,175.536591,-113.435562,177.12851,-113.070206,177.639221C-112.745499,178.09314,-112.47551,178.960983,-112.411804,179.75563C-112.282196,181.372223,-113.012299,182.674637,-114.47261,183.43187C-116.096893,184.274124,-117.138672,183.952469,-122.457832,180.9664C-125.119934,179.471954,-127.387314,178.199677,-127.496445,178.139145C-128.10907,177.799286,-127.35984,178.676941,-124.434875,181.72551C-113.750961,192.860916,-112.400955,196.072662,-112.335175,210.511444C-112.30069,218.082581,-112.351395,218.322418,-114.360611,220.091003C-115.773315,221.334518,-117.889999,222.17067,-120.531242,222.52858C-121.633926,222.678009,-122.805954,222.855591,-123.135742,222.923187C-123.465538,222.990799,-125.433113,224.687607,-127.508141,226.693878C-132.709503,231.7229,-135.747604,233.68689,-140.393265,235.023499C-142.342514,235.58432,-142.651886,235.753845,-142.716553,236.2966C-142.968124,238.407837,-143.718246,241.417526,-144.403625,243.065613C-145.504135,245.711945,-146.760834,247.567169,-149.733429,250.933868C-153.717804,255.446503,-154.710358,257.793884,-155.077972,263.573944C-155.251694,266.305603,-155.28923,266.441345,-156.047333,267.079224C-157.176559,268.029419,-158.455688,267.975098,-159.498108,266.932648L-160.308319,266.122467L-160.158524,262.633698C-159.872803,255.978546,-158.456284,252.880035,-152.75798,246.445679C-150.551804,243.954529,-149.13913,241.433105,-148.466034,238.785126C-147.814331,236.221359,-147.863113,236.055084,-149.321838,235.868469C-156.320526,234.97319,-157.589035,234.402588,-157.589035,232.14978C-157.589035,231.437439,-157.383804,230.988983,-156.782745,230.387909C-155.883972,229.489151,-155.826508,229.487991,-151.636658,230.284836C-148.948639,230.796051,-145.755096,230.811676,-143.216888,230.32605C-138.967499,229.513,-136.184341,227.796875,-130.969971,222.774506C-126.523773,218.492035,-125.458237,217.855713,-122.093056,217.473328C-119.770668,217.209442,-118.199509,216.716309,-117.732452,216.104675C-117.277664,215.509109,-117.495766,203.713699,-118.012512,200.958313C-119.025055,195.559326,-121.151848,192.401871,-129.693985,183.615845C-131.722412,181.529495,-133.240234,179.744415,-133.344147,179.322937C-133.465942,178.828888,-133.22821,177.692581,-132.589981,175.718369L-131.657944,172.835281L-133.000488,169.96019C-133.738892,168.378876,-134.532318,166.875931,-134.763641,166.620316C-135.126129,166.219788,-135.688507,166.155533,-138.83197,166.155533C-143.254379,166.155533,-143.362061,166.224823,-142.936737,168.796616C-142.695801,170.253357,-142.740631,170.620102,-143.411362,172.679657L-144.152039,174.954025L-141.169373,177.761688C-138.376831,180.390396,-138.112,180.72966,-137.014099,183.084656C-133.411377,190.812531,-132.253082,194.531586,-131.904953,199.488861C-131.767014,201.453156,-131.4776,204.021957,-131.26181,205.197311C-130.707916,208.214249,-130.749573,208.820648,-131.566895,209.63797C-132.518555,210.58963,-134.127045,210.608368,-135.097015,209.679077L-135.782074,209.022736L-136.833374,209.542877C-139.088257,210.658508,-142.268341,210.614716,-145.650345,209.421478C-146.281128,209.198914,-147.857666,208.887894,-149.153809,208.730301C-151.996887,208.384613,-154.414337,208.69101,-156.901001,209.712219C-158.824112,210.501968,-159.634277,210.430634,-160.685913,209.378998C-161.264709,208.800217,-161.339569,208.534882,-161.234009,207.436432L-161.111771,206.1642L-165.898026,204.113525C-168.530457,202.985657,-170.945953,201.825897,-171.265778,201.536285C-172.515594,200.404587,-172.23822,198.239914,-170.744446,197.467453C-170.198853,197.185318,-169.607056,197.110199,-168.838242,197.225494L-167.723267,197.392685L-167.029221,195.84613C-165.789902,193.084549,-165.465073,191.045486,-165.586639,186.790451C-165.702942,182.720779,-166.136261,180.861496,-167.373428,179.124069L-167.942535,178.324844L-164.904053,178.324844L-161.865601,178.324844L-161.45755,179.449188C-160.633942,181.718521,-160.459244,182.763138,-160.318237,186.261353C-160.142029,190.633118,-160.622284,193.779129,-161.986328,197.188416C-162.502197,198.477829,-162.858612,199.59848,-162.77832,199.678772C-162.698029,199.759064,-160.759766,200.642044,-158.4711,201.640945L-154.309845,203.457123L-151.518219,203.466339C-148.607712,203.475967,-146.131836,203.847961,-142.774216,204.78009C-140.242142,205.483017,-139.466492,205.335632,-138.038025,203.880142L-136.899353,202.71991L-137.084183,199.847778C-137.304428,196.42543,-137.969208,194.231232,-140.672028,188.005646L-142.520401,183.748123L-146.149017,180.277328C-149.701813,176.879074,-149.777054,176.783691,-149.748993,175.713837L-149.720352,174.62114L-177.682953,174.62114L-205.645538,174.62114L-205.533783,175.382629C-205.364151,176.538422,-205.87178,177.221649,-209.141464,180.238281L-212.148926,183.01297L-214.123688,187.745621C-217.09639,194.869858,-217.95285,197.586136,-218.146744,200.504715L-218.310883,202.975586L-217.198395,204.001038C-216.586533,204.565033,-215.790054,205.100739,-215.428452,205.191498C-215.059998,205.283981,-213.803009,205.098999,-212.568909,204.770691C-208.911224,203.797623,-206.797821,203.478638,-203.935562,203.467621C-201.243683,203.45726,-201.160675,203.437805,-197.586365,201.980408C-195.594452,201.168213,-193.831589,200.364639,-193.668915,200.194702C-193.3508,199.86235,-192.752136,197.09314,-192.934586,196.797913C-192.995224,196.699799,-193.3974,196.542084,-193.828308,196.447449C-194.754944,196.243927,-195.949951,194.925781,-195.946106,194.11142C-195.944626,193.795197,-195.646637,191.631729,-195.28392,189.30368C-194.58139,184.794693,-193.938889,182.299286,-192.848785,179.846008L-192.172867,178.324844L-189.02092,178.324844L-185.868988,178.324844L-186.514236,179.184631C-187.443985,180.423523,-188.402237,182.431915,-189.007156,184.4095C-189.746887,186.82782,-190.545654,191.898392,-190.204773,192.012009C-190.055923,192.06163,-189.412567,192.365417,-188.775101,192.687088C-187.313477,193.424622,-187.026398,194.173431,-187.381668,196.321655C-187.614563,197.729904,-187.597061,197.897293,-187.233841,197.735229C-187.007233,197.634109,-186.378464,197.498917,-185.836563,197.434784C-185.00943,197.336899,-184.722824,197.446655,-184.050842,198.118622C-183.104858,199.064606,-182.950012,200.652756,-183.713379,201.579773C-183.976318,201.899094,-186.3479,203.033875,-189.202789,204.20639C-192.808914,205.687439,-194.20105,206.377853,-194.129456,206.649673C-193.718292,208.210815,-194.493408,209.766937,-195.880325,210.164703C-196.505951,210.344131,-197.061432,210.244141,-198.388641,209.713165C-202.015579,208.262161,-205.394455,208.254089,-210.642792,209.683899C-213.943069,210.582993,-216.109314,210.591431,-218.028839,209.712616L-219.461441,209.056763L-219.629333,209.821213C-220.062729,211.794418,-222.598068,212.562866,-224.011505,211.149429C-224.939896,210.221039,-224.976944,209.584015,-224.264557,206.79863C-223.958038,205.600159,-223.632172,202.987198,-223.471344,200.438187C-223.107971,194.679398,-222.084351,191.220963,-218.418167,183.365463C-217.170319,180.691727,-216.989182,180.454376,-214.139709,177.75943L-211.164261,174.945328L-211.917511,172.632355C-212.611099,170.502594,-212.647141,170.199326,-212.372589,168.803802C-212.031204,167.068558,-212.172928,166.474045,-212.975357,166.275345C-213.286682,166.198242,-215.089035,166.16951,-216.980576,166.211487L-220.419724,166.287811L-222.039597,169.546631L-223.659485,172.805481L-222.739822,175.631302C-222.016495,177.853821,-221.868347,178.634949,-222.045868,179.290115C-222.193558,179.835175,-223.819794,181.755554,-226.750488,184.845673C-234.015854,192.506256,-235.869339,195.164001,-236.983231,199.518646C-237.474213,201.43808,-237.567871,202.710831,-237.677109,208.949112L-237.803391,216.160675L-236.586609,216.698914C-235.917374,216.994949,-234.348877,217.35318,-233.101059,217.494965C-229.843185,217.865143,-228.803452,218.491501,-224.427216,222.720306C-220.493378,226.521606,-218.697479,227.879425,-215.964752,229.1185C-212.581421,230.652588,-207.991669,231.090942,-203.753052,230.284836C-199.727005,229.51915,-199.581467,229.518951,-198.679688,230.277756C-198.230759,230.655487,-197.800644,231.293213,-197.723846,231.694885C-197.540588,232.653564,-198.12735,234.017487,-198.902618,234.434906C-199.70816,234.868622,-203.720657,235.707458,-205.075806,235.725433C-206.600998,235.745667,-207.324493,235.99527,-207.324493,236.501175C-207.324493,237.533539,-206.452759,240.245941,-205.488541,242.213745C-204.788773,243.64183,-203.786713,245.061462,-202.407425,246.578812C-197.271393,252.228943,-195.681824,255.518265,-195.148712,261.599579C-194.824966,265.292664,-194.968048,266.215607,-195.99884,267.082947C-197.107117,268.015503,-198.405548,267.97229,-199.408325,266.969543z"/>
    <path style="stroke:none;fill:#ff0000;fill-rule:evenodd" d="M-177.257568,247.306335C-177.555298,246.8255,-177.575562,246.253464,-177.363007,244.330139C-177.038315,241.392334,-177.046875,224.273041,-177.375107,220.123779C-177.635345,216.834137,-177.414703,215.890991,-176.384903,215.890991C-174.840668,215.890991,-174.652527,217.686707,-174.652527,232.425385C-174.652527,243.923523,-174.813446,246.834229,-175.486389,247.507172C-176.058228,248.07901,-176.833572,247.991089,-177.257568,247.306335z"/>
</svg>
