<svg width="69" height="66" viewBox="0 0 69 66" fill="none" xmlns="http://www.w3.org/2000/svg">
<g clip-path="url(#clip0_752_99)">
<path fill-rule="evenodd" clip-rule="evenodd" d="M1.07028 64.9272C-0.356761 63.4851 -0.356761 61.9095 1.07028 60.4674C1.65406 59.8774 2.51192 59.3898 2.97664 59.3837C5.55951 59.35 53.0922 56.1455 53.2411 55.9951C53.3391 55.896 53.0571 51.6666 52.6144 46.5963C52.0527 40.1633 51.6788 37.3778 51.3769 37.3778C51.139 37.3778 50.1066 37.5383 49.0827 37.7345C48.0587 37.9308 46.9737 37.9954 46.6715 37.8783C46.3694 37.7611 45.8634 36.7661 45.5473 35.6671C44.6325 32.4871 44.7012 32.4386 53.6065 29.9898C60.0733 28.2116 61.3013 27.9721 61.9203 28.3685C62.7157 28.8779 63.4792 31.2811 63.5251 33.4201C63.558 34.9581 63.1201 35.332 60.8242 35.726C60.029 35.8624 59.1284 36.0418 58.8228 36.1246C58.3323 36.2575 58.4052 37.8134 59.4451 49.3945C60.0931 56.6101 60.5348 62.9659 60.4268 63.5184C60.3188 64.071 59.8125 64.8554 59.3016 65.2615C58.389 65.9869 57.8796 65.9998 30.2522 65.9998H2.13171L1.07028 64.9272Z" fill="black"/>
<path fill-rule="evenodd" clip-rule="evenodd" d="M11.6284 55.1181C11.6284 54.8513 15.8514 41.8334 16.5293 40.0105C16.6671 39.64 16.9363 39.7042 17.6607 40.28C18.1836 40.6956 19.5775 41.2374 20.7584 41.4838C21.9392 41.7303 22.8461 42.1044 22.7736 42.3151C22.7011 42.5258 21.6949 45.4641 20.5375 48.8447L18.4332 54.9911H16.1656C14.9183 54.9911 13.3873 55.0943 12.7632 55.2204C12.1391 55.3465 11.6284 55.3005 11.6284 55.1181Z" fill="black"/>
<path fill-rule="evenodd" clip-rule="evenodd" d="M28.3412 51.6979C26.763 50.1031 26.8724 49.5255 30.3043 41.3297C30.9729 39.7329 31.6618 40.063 24.7194 38.6533C20.1026 37.7158 18.8285 37.0783 18.3171 35.4499C18.1942 35.0588 18.8663 31.9442 19.8117 28.5237C20.7565 25.1052 21.4538 22.2316 21.3612 22.138C21.2686 22.0444 20.4229 22.2329 19.4819 22.5569C17.8961 23.103 17.6765 23.3376 16.4764 25.7667C14.8058 29.1484 13.9848 30.0386 12.5364 30.0386C11.2024 30.0386 9.81299 28.7595 9.81299 27.5313C9.81299 26.504 13.1401 19.7762 14.0389 18.9861C14.9739 18.1641 22.4182 15.7275 23.9944 15.7275C25.7303 15.7275 32.8976 18.3908 34.0367 19.4591C34.5383 19.9295 35.6697 21.2564 36.551 22.4078L38.1533 24.5011L40.2937 23.2334C41.4709 22.5362 42.7817 21.9657 43.2066 21.9657C44.3425 21.9657 45.7615 23.5687 45.7615 24.852C45.7615 26.2241 44.7051 27.1382 40.6513 29.2737C36.7577 31.3248 36.2517 31.2306 33.9195 28.0208C32.9662 26.7087 32.076 25.6352 31.9413 25.6352C31.7141 25.6352 29.5951 31.0229 29.3493 32.2257C29.2666 32.6299 30.1601 32.958 32.9865 33.5613C37.3795 34.499 38.5065 35.2753 38.4867 37.3498C38.4723 38.8709 33.849 50.342 32.7447 51.5969C31.786 52.6862 29.3739 52.7415 28.3412 51.6979Z" fill="black"/>
<path fill-rule="evenodd" clip-rule="evenodd" d="M54.3576 23.3421C53.8705 22.888 51.8124 20.4111 49.7839 17.8378L46.0958 13.1592H47.5627C49.0347 13.1592 49.9638 12.5622 50.777 11.0937C51.222 10.2902 51.0934 10.1614 52.8393 13.1592C55.3999 17.5558 56.0655 17.8133 57.6247 15.0103C58.6026 13.2523 58.6957 13.1882 60.4224 13.0838C62.4523 12.961 63.309 12.1688 62.4902 11.1718C62.1465 10.7533 61.3682 10.5906 59.7102 10.5906C57.479 10.5906 57.3803 10.631 56.5317 11.8931L55.6558 13.1956L53.9603 10.273C51.3976 5.85561 50.9662 5.71912 49.204 8.76831L48.1508 10.5906H46.0924C44.1847 10.5906 44.0052 10.5167 43.6394 9.58148C42.493 6.65024 42.8889 4.11156 44.8021 2.12579C47.7064 -0.888708 51.6775 -0.68157 54.8118 2.6479L56.0551 3.96857L57.2667 2.5381C58.8128 0.712736 61.1565 -0.23774 63.2766 0.100821C67.6538 0.799849 70.2956 5.69234 68.354 9.50389C67.4606 11.2576 57.9098 23.3185 57.0433 23.7872C55.9836 24.3603 55.3342 24.2527 54.3576 23.3421Z" fill="black"/>
<path fill-rule="evenodd" clip-rule="evenodd" d="M30.3293 15.1879C26.3532 13.7483 25.2838 8.81452 28.2895 5.77714C32.4073 1.61588 39.1431 5.49123 37.72 11.2028C37.2959 12.9046 35.0274 15.3569 33.8687 15.366C33.5197 15.3688 32.9074 15.4482 32.508 15.5424C32.1086 15.6367 31.1282 15.4772 30.3293 15.1879Z" fill="black"/>
</g>
<defs>
<clipPath id="clip0_752_99">
<rect width="69" height="66" fill="white"/>
</clipPath>
</defs>
</svg>
