<?xml version="1.0" encoding="UTF-8"?>
<svg xmlns="http://www.w3.org/2000/svg" xmlns:xlink="http://www.w3.org/1999/xlink" width="134.921mm" height="71.549mm" viewBox="570.440552 247.401703 134.920959 71.549042">
    <path style="stroke:none;fill:#ff0000;fill-rule:evenodd" d="M570.440552,315.547272C570.440552,312.504639,570.498718,312.069885,570.988892,311.446716C571.504028,310.79184,571.672546,310.749695,573.774963,310.749695C575.321594,310.749695,576.051697,310.647522,576.138855,310.419006C576.208191,310.237122,578.167542,299.969238,580.49292,287.601471C582.818298,275.233734,584.778687,264.867432,584.849426,264.565308C584.957581,264.102753,584.435608,263.671204,581.547302,261.835144C578.014832,259.589661,577.318909,258.945374,577.318909,257.920532C577.318909,257.360535,580.184998,252.854126,581.366516,251.556427C582.590881,250.211716,582.716187,250.274857,597.527588,259.700623C605.077515,264.50528,611.284485,268.40329,611.320862,268.362823C611.357239,268.322357,613.368225,265.074982,615.789734,261.146393C618.211243,257.217804,620.493042,253.735672,620.860474,253.408279C621.677429,252.680237,622.279785,252.660828,623.57373,253.320923C624.677734,253.884155,625.309692,254.955261,625.047913,255.819641C624.953857,256.13031,622.914917,259.569,620.516968,263.461212L616.157043,270.537964L614.528992,270.541077C611.276367,270.547363,607.685547,272.019653,605.112305,274.401978L603.552612,275.845947L597.687988,272.112549C594.462463,270.059204,591.766602,268.435944,591.697266,268.50531C591.598633,268.603943,583.668091,310.226318,583.668091,310.645386C583.668091,310.702759,600.419861,310.749695,620.894226,310.749695C652.510254,310.749695,658.06189,310.694794,657.73291,310.385559C657.519836,310.185272,651.09552,306.060699,643.456604,301.219818C635.817688,296.378967,629.471375,292.333435,629.353699,292.229767C629.236023,292.126099,629.414246,291.220886,629.749756,290.218201C630.51947,287.917816,630.58313,283.290924,629.870972,281.409424C629.628296,280.768311,629.463623,280.20993,629.505005,280.168518C629.546448,280.127136,634.833374,283.42804,641.253845,287.503845L652.927368,294.914459L652.67804,295.817352C652.385559,296.876678,652.769409,298.599121,653.538757,299.679565C654.186462,300.589172,656.051819,301.490387,657.286865,301.490387C657.817444,301.490387,658.916382,301.241699,659.728821,300.937683C660.541321,300.633728,661.362854,300.44516,661.554443,300.518707C661.746094,300.592224,664.733704,302.451019,668.193604,304.649323C671.653503,306.847595,674.513062,308.613525,674.548157,308.573608C674.583313,308.533661,679.870056,300.286682,686.296509,290.246979C692.722961,280.207275,698.183228,271.792145,698.430481,271.546692C699.313904,270.669647,700.097412,270.723755,701.89978,271.786255C704.293518,273.197357,705.361511,274.25647,705.361511,275.219177C705.361511,275.798584,702.509644,280.453552,694.382629,293.139557C688.344238,302.565247,683.403809,310.383484,683.403809,310.513428C683.403809,310.643372,684.819153,310.749695,686.549072,310.749695C690.985352,310.749695,690.91748,310.679901,691.030151,315.355347L691.11676,318.950745L630.778687,318.950745L570.440552,318.950745L570.440552,315.547272z"/>
    <path style="stroke:none;fill:#ff0000;fill-rule:evenodd" d="M667.266174,301.485016C666.292969,301.258209,663.306519,299.865479,663.306763,299.63855C663.306885,299.565796,663.988159,299.211121,664.820801,298.850403C666.79541,297.994873,671.179871,295.352966,673.352539,293.709442C679.138123,289.333008,685.031006,281.430023,686.317017,276.322723C687.079651,273.294128,684.876465,270.537964,681.692993,270.537964C679.438721,270.537964,678.236572,271.589081,676.66925,274.93045C673.735962,281.183929,668.925293,285.971558,661.954895,289.574402L658.862183,291.172943L658.701111,289.51947C658.612549,288.610077,658.350342,285.366028,658.11853,282.310455C657.886658,279.254883,657.61792,276.678467,657.52124,276.585052C657.424622,276.491638,653.59552,274.846252,649.012207,272.92868C644.428833,271.011108,640.207886,269.18277,639.632385,268.865723C639.056824,268.548676,638.223511,267.773071,637.780518,267.142151C637.05127,266.103455,636.975098,265.801514,636.975098,263.948212C636.975098,262.156677,637.066101,261.763885,637.704895,260.798645C638.106262,260.192139,638.930847,259.367493,639.537292,258.966125C640.482666,258.340424,640.90686,258.237,642.51123,258.240906C644.335876,258.245392,644.653076,258.35968,655.228271,262.822815C661.19342,265.340332,666.462402,267.696381,666.937073,268.058441C668.478333,269.234009,668.883789,270.454193,669.291748,275.144318C669.493774,277.467529,669.699219,279.408417,669.748291,279.457458C669.797302,279.50647,670.977356,277.668457,672.370605,275.372955C675.927734,269.512207,676.596497,268.599579,678.029297,267.650543C681.599304,265.285889,684.704956,265.661041,687.577393,268.803955C689.774048,271.207458,690.687561,274.582947,690.016968,277.818573C689.353333,281.020905,686.081909,287.496979,683.241943,291.230286C681.572876,293.424469,677.017334,297.954803,674.948792,299.47757C672.431946,301.330383,669.683838,302.048431,667.266174,301.485016z"/>
    <path style="stroke:none;fill:#ff0000;fill-rule:evenodd" d="M656.287354,300.502899C655.435242,300.289551,654.325928,299.391754,653.902344,298.572632C653.06781,296.958801,653.680603,294.311829,655.05957,293.573822C655.345642,293.420715,657.030518,292.706421,658.803711,291.986511C666.246399,288.964905,671.986084,284.399933,675.772644,278.490631C676.466187,277.408264,677.296814,275.860626,677.618347,275.051483C678.412598,273.053131,678.996094,272.268524,680.065552,271.761047C682.589844,270.563171,685.230896,272.079803,685.461426,274.85965C685.837402,279.393494,678.136292,289.60434,670.600037,294.564301C667.272827,296.754089,663.378479,298.714111,660.036072,299.881134C657.718994,300.690186,657.307739,300.758392,656.287354,300.502899z"/>
    <path style="stroke:none;fill:#ff0000;fill-rule:evenodd" d="M612.312561,298.974121C607.514771,297.931641,603.291565,293.895874,602.06311,289.179535C601.233826,285.995697,601.683777,281.971375,603.183899,279.15567C604.221863,277.207428,607.031372,274.474609,609.037231,273.462036C618.138733,268.867615,628.906311,275.454926,628.906311,285.61734C628.906311,289.272766,627.561279,292.502747,624.938049,295.146545C621.458069,298.653931,617.024536,299.997986,612.312561,298.974121zM617.864868,290.336304C619.961792,289.282135,621.130127,286.508575,620.448853,284.202118C619.728027,281.761719,617.783081,280.288544,615.281921,280.288544C610.176697,280.288544,607.924866,286.551758,611.863098,289.797943C613.565796,291.201447,615.753601,291.397705,617.864868,290.336304zM613.270813,288.720551C610.165466,286.646057,611.563538,281.915619,615.281921,281.915619C616.770569,281.915619,617.987183,282.74054,618.625,284.182434C620.110168,287.539886,616.316589,290.755249,613.270813,288.720551z"/>
    <path style="stroke:none;fill:#ff0000;fill-rule:evenodd" d="M624.954346,273.940857C623.770386,272.88208,620.359131,271.067047,619.553162,271.067047C619.313782,271.067047,619.11792,270.953156,619.11792,270.813934C619.11792,270.42514,632.330444,249.551468,632.814514,249.175476C633.71698,248.474487,635.033447,248.80365,637.105774,250.248459C639.298889,251.777496,639.903748,252.646332,639.505066,253.694931C639.281067,254.28418,626.71875,274.369781,626.295959,274.814697C626.203857,274.911591,625.600159,274.518372,624.954346,273.940857z"/>
    <path style="stroke:none;fill:#ff0000;fill-rule:evenodd" d="M690.740173,266.567383C687.955505,266.082245,684.945984,263.802094,683.712463,261.242798C681.37262,256.388397,683.474915,250.581879,688.430237,248.212097C689.948547,247.486008,690.413025,247.391235,692.398499,247.402435C695.390564,247.419327,697.200317,248.125717,699.164429,250.043304C701.295593,252.123978,702.040649,253.89888,702.048462,256.913574C702.053772,258.962646,701.953735,259.509827,701.331116,260.838867C700.108765,263.448059,698.391846,265.113861,696.012573,265.999054C694.286072,266.641357,692.357788,266.849213,690.740173,266.567383z"/>
</svg>
